<svg viewBox="0 0 80 80" height="80.0pt" width="80.0pt" xmlns="http://www.w3.org/2000/svg" version="1.1">
<path d="M 44.93 11.13 C 46.58 13.91 45.57 16.31 43.97 18.77 C 50.69 22.46 56.53 27.84 56.98 35.97 C 57.28 40.46 55.08 43.80 51.83 46.63 C 54.25 49.76 55.57 53.63 54.42 57.53 C 52.46 59.82 48.31 60.61 45.51 61.63 C 50.92 61.82 56.64 61.70 62.05 62.32 C 65.33 62.36 68.45 64.76 70.68 66.97 L 70.13 68.94 C 67.21 71.43 64.35 69.60 61.01 69.40 C 53.89 68.75 47.08 70.10 39.99 68.30 C 31.57 70.44 23.28 68.11 14.83 70.06 C 12.52 70.65 9.36 69.90 9.37 67.02 C 11.04 64.72 13.29 62.92 16.17 62.50 C 22.28 61.74 28.36 61.82 34.49 61.63 C 31.63 60.61 27.66 59.84 25.57 57.55 C 24.48 53.71 25.76 49.73 28.15 46.63 C 24.64 43.61 22.39 39.75 23.02 34.96 C 24.16 27.24 29.50 22.36 36.02 18.77 C 34.42 16.30 33.42 13.91 35.06 11.13 C 37.40 7.70 42.60 7.69 44.93 11.13 Z" fill="#000000" />
<path d="M 39.18 26.32 C 42.06 25.61 41.13 28.67 41.56 30.45 C 42.89 30.63 44.52 30.49 45.69 31.19 C 46.39 34.05 43.33 33.14 41.56 33.55 C 41.37 34.88 41.51 36.52 40.80 37.68 C 37.95 38.39 38.87 35.31 38.44 33.55 C 37.11 33.37 35.48 33.50 34.31 32.81 C 33.60 29.95 36.66 30.87 38.43 30.45 C 38.62 29.11 38.51 27.51 39.18 26.32 Z" fill="#ffffff" />
<path d="M 37.00 44.91 C 41.57 45.13 46.70 44.28 51.00 45.80 C 48.73 48.40 46.04 47.29 43.00 47.52 C 38.64 47.34 34.08 47.92 29.79 47.10 L 29.68 45.71 C 31.69 44.45 34.70 45.04 37.00 44.91 Z" fill="#ffffff" />
<path d="M 25.80 51.95 C 35.27 52.03 44.73 52.03 54.20 51.95 C 54.23 52.81 54.26 53.67 54.28 54.53 C 44.78 54.62 35.27 54.61 25.77 54.54 C 25.77 53.68 25.78 52.81 25.80 51.95 Z" fill="#ffffff" /></svg>