<svg viewBox="0 0 80 80" height="80.0pt" width="80.0pt" xmlns="http://www.w3.org/2000/svg" version="1.1">
<path d="M 38.82 9.26 L 41.11 9.83 C 41.27 10.76 41.42 11.69 41.57 12.62 C 43.86 13.00 45.08 13.21 46.74 14.95 C 44.95 15.24 43.17 15.48 41.38 15.69 C 41.40 17.06 41.42 18.43 41.44 19.80 C 43.01 21.05 44.95 22.35 46.01 24.08 C 46.89 25.88 47.02 28.11 47.38 30.06 C 50.83 28.29 54.00 26.66 58.03 26.92 C 64.65 27.34 71.51 32.80 70.71 40.00 C 70.30 46.46 63.97 51.01 59.10 54.35 C 59.08 55.76 59.07 57.17 59.05 58.58 C 46.32 54.48 31.80 54.53 19.06 58.59 C 19.05 56.86 19.05 55.13 19.04 53.40 C 14.87 50.26 9.81 46.66 9.27 41.00 C 8.43 34.56 12.67 28.43 19.06 27.12 C 24.31 26.18 28.35 28.44 32.74 30.88 C 32.95 28.85 33.00 26.58 33.69 24.66 C 34.59 22.64 36.88 21.15 38.56 19.79 C 38.58 18.43 38.60 17.06 38.62 15.69 C 36.83 15.48 35.05 15.24 33.26 14.95 C 34.92 13.17 36.28 12.98 38.58 12.59 C 38.66 11.48 38.74 10.37 38.82 9.26 Z" fill="#000000" />
<path d="M 24.79 29.39 C 31.26 30.75 36.25 34.95 39.98 40.26 C 43.42 35.23 47.73 31.13 53.77 29.56 C 58.59 28.48 63.75 28.88 67.27 32.74 C 70.12 35.32 70.19 39.41 69.04 42.83 C 66.48 48.35 61.81 50.45 57.82 54.63 C 45.79 49.17 31.98 49.10 19.76 54.01 C 19.39 53.17 19.03 52.33 18.67 51.49 C 16.21 49.86 13.91 48.17 12.24 45.68 C 9.30 41.78 9.50 35.48 13.12 32.05 C 16.09 28.81 20.74 28.68 24.79 29.39 Z" fill="#ffffff" />
<path d="M 20.96 31.51 C 27.34 31.80 33.58 35.61 37.14 40.85 C 38.57 42.88 38.44 45.45 38.79 47.84 C 32.85 47.89 27.45 48.73 21.75 50.39 C 17.85 47.71 13.52 45.29 12.95 40.08 C 12.54 35.12 16.09 31.60 20.96 31.51 Z" fill="#000000" />
<path d="M 58.01 31.51 C 62.18 31.54 67.27 34.20 66.96 39.01 C 66.97 44.69 61.04 48.54 56.71 51.11 C 51.67 49.40 46.53 48.42 41.24 47.81 C 41.57 45.46 41.48 42.79 42.83 40.80 C 46.10 35.75 51.93 31.85 58.01 31.51 Z" fill="#000000" />
<path d="M 31.98 58.48 C 40.74 57.97 49.14 57.92 57.52 60.89 C 58.06 60.73 58.59 60.57 59.13 60.42 C 59.08 61.65 59.02 62.89 58.95 64.12 C 58.60 65.14 58.28 66.17 57.97 67.21 C 52.44 70.43 46.32 71.45 40.00 71.72 C 33.12 71.73 26.07 70.63 20.05 67.11 C 32.17 62.82 45.45 62.51 57.56 67.00 C 57.86 66.18 58.16 65.35 58.47 64.53 C 53.90 62.66 49.38 61.71 44.44 61.42 C 35.61 60.99 27.15 61.16 18.99 64.93 C 19.02 63.61 19.06 62.30 19.10 60.98 C 23.43 60.19 27.53 58.74 31.98 58.48 Z" fill="#000000" /></svg>