<svg viewBox="0 0 80 80" height="80.0pt" width="80.0pt" xmlns="http://www.w3.org/2000/svg" version="1.1">
<path d="M 30.09 16.96 C 30.81 16.92 31.54 16.87 32.27 16.83 C 33.91 14.13 35.34 12.67 38.06 11.03 C 38.98 12.98 39.70 14.98 40.32 17.05 C 44.81 17.64 49.09 18.61 52.92 21.16 C 59.66 25.20 63.29 31.94 65.51 39.25 C 68.16 49.44 68.78 59.74 68.47 70.24 C 67.83 70.26 67.20 70.28 66.56 70.30 C 67.01 56.64 67.07 42.17 60.08 29.96 C 56.31 23.60 50.94 19.79 43.71 18.20 C 43.47 18.93 43.23 19.66 42.98 20.39 C 46.01 21.13 48.90 21.63 51.56 23.36 C 56.66 26.61 60.13 32.48 61.72 38.21 C 64.22 48.74 64.20 59.53 63.56 70.26 C 50.90 70.24 38.23 70.28 25.56 70.24 C 25.94 67.44 26.07 64.05 27.57 61.59 C 30.48 56.53 35.82 53.71 38.33 48.46 C 39.88 45.40 40.21 42.21 40.73 38.87 C 36.99 42.63 33.21 45.81 28.85 48.82 C 24.82 51.40 24.28 55.83 19.09 56.29 C 18.77 55.65 18.44 55.02 18.11 54.38 C 15.65 54.17 13.15 54.72 11.39 52.60 C 9.52 49.89 9.23 45.97 10.65 42.99 C 14.29 34.65 19.01 27.03 23.92 19.41 C 23.27 17.22 22.98 15.04 22.87 12.77 C 26.34 10.83 28.12 14.84 30.09 16.96 Z" fill="#000000" />
<path d="M 26.37 24.41 C 29.20 24.22 28.01 26.90 27.29 28.43 C 26.35 29.74 25.32 31.45 23.52 30.37 C 22.75 28.22 24.72 25.62 26.37 24.41 Z" fill="#ffffff" />
<path d="M 15.49 43.61 C 16.35 43.37 18.04 44.06 17.70 45.12 C 18.02 47.15 15.69 47.52 14.38 46.37 C 14.31 44.91 13.85 44.29 15.49 43.61 Z" fill="#ffffff" /></svg>