<svg viewBox="0 0 80 80" height="80.0pt" width="80.0pt" xmlns="http://www.w3.org/2000/svg" version="1.1">
<path d="M 43.49 16.48 C 47.29 18.97 47.59 23.01 46.23 27.03 C 48.38 29.10 50.37 30.94 50.99 34.01 C 52.29 38.37 50.86 42.51 48.24 46.02 C 57.17 51.48 60.35 61.05 60.55 71.07 C 46.26 71.08 31.97 71.08 17.68 71.07 C 17.68 61.09 21.19 51.40 29.97 45.96 C 27.83 42.88 26.14 39.88 26.67 35.96 C 27.09 32.10 29.34 29.52 31.97 26.92 C 30.93 24.24 30.56 21.70 32.17 19.15 C 34.53 15.23 39.64 13.66 43.49 16.48 Z" fill="#000000" /></svg>