<svg viewBox="0 0 80 80" height="80.0pt" width="80.0pt" xmlns="http://www.w3.org/2000/svg" version="1.1">
<path d="M 40.00 8.68 C 41.90 9.44 43.58 9.83 44.24 12.02 C 45.12 14.95 43.20 16.31 41.23 17.99 C 42.45 25.46 44.02 32.85 45.76 40.21 C 48.45 33.68 50.96 27.07 53.84 20.62 C 52.45 19.28 50.47 18.21 50.60 16.00 C 50.51 13.04 54.24 10.49 56.93 11.97 C 59.08 12.88 60.16 15.86 59.02 17.91 C 58.46 19.20 57.10 19.79 56.03 20.59 C 55.98 27.56 55.98 34.55 56.03 41.53 C 59.34 35.97 62.93 30.57 66.39 25.10 C 65.54 23.09 64.28 21.63 65.40 19.39 C 67.10 15.49 73.72 16.66 73.75 21.04 C 73.88 24.62 71.42 25.64 68.31 25.95 C 66.97 32.62 66.03 39.34 65.06 46.06 C 64.85 49.06 62.50 50.79 60.77 53.07 C 56.93 51.40 52.14 51.48 47.99 51.18 C 40.19 51.00 32.28 50.89 24.51 51.73 C 22.64 51.90 20.96 52.36 19.24 53.09 C 17.53 50.83 15.13 49.04 14.93 46.07 C 13.98 39.34 13.02 32.62 11.69 25.95 C 10.62 25.77 9.57 25.55 8.53 25.27 C 6.01 24.07 5.45 20.25 7.38 18.35 C 9.30 16.31 13.50 16.61 14.60 19.39 C 15.72 21.63 14.45 23.09 13.61 25.11 C 17.08 30.57 20.66 35.97 23.97 41.52 C 24.02 34.22 24.02 26.91 23.97 19.60 C 20.96 18.20 19.38 15.46 21.43 12.41 C 23.93 8.85 29.19 10.98 29.40 15.00 C 29.54 17.40 27.69 18.27 26.14 19.66 C 28.96 26.45 31.63 33.31 34.21 40.18 C 36.02 32.85 37.53 25.45 38.77 17.99 C 36.79 16.32 34.87 14.95 35.76 12.01 C 36.43 9.83 38.10 9.44 40.00 8.68 Z" fill="#000000" />
<path d="M 59.52 53.94 C 59.22 55.53 59.09 57.06 59.16 58.68 C 46.62 56.98 33.38 56.93 20.84 58.70 C 20.89 57.09 20.77 55.54 20.52 53.95 C 33.54 52.60 46.50 52.64 59.52 53.94 Z" fill="#000000" />
<path d="M 56.01 60.11 C 57.63 60.48 59.00 60.21 60.12 59.30 C 60.75 60.66 61.38 62.03 61.99 63.40 C 47.65 60.82 32.01 61.66 17.55 62.88 C 18.36 61.70 19.17 60.51 19.98 59.33 C 20.87 60.07 21.80 60.37 22.74 60.23 C 33.73 58.73 45.02 58.55 56.01 60.11 Z" fill="#000000" />
<path d="M 27.00 63.95 C 35.66 63.37 44.35 63.38 53.01 64.02 C 56.22 64.23 59.15 65.08 62.39 64.46 C 62.37 66.85 62.53 69.31 59.51 69.52 C 46.65 70.95 32.98 71.00 20.14 69.45 C 17.35 69.07 17.13 66.90 16.68 64.58 C 20.19 64.95 23.51 64.17 27.00 63.95 Z" fill="#000000" /></svg>