<svg viewBox="0 0 80 80" height="80.0pt" width="80.0pt" xmlns="http://www.w3.org/2000/svg" version="1.1">
<path d="M 18.44 14.87 C 21.48 14.39 24.70 14.59 27.76 14.69 C 27.88 15.89 27.99 17.08 28.11 18.27 C 29.89 18.26 31.68 18.26 33.47 18.27 C 33.91 17.08 34.40 15.90 34.94 14.75 C 38.19 14.44 41.81 14.44 45.06 14.75 C 45.60 15.90 46.09 17.08 46.53 18.27 C 48.32 18.26 50.11 18.26 51.89 18.27 C 52.01 17.08 52.12 15.89 52.24 14.70 C 55.31 14.57 58.51 14.40 61.56 14.88 C 61.81 18.34 62.09 22.07 61.36 25.48 C 59.89 27.14 58.18 28.58 56.59 30.13 C 56.39 36.78 56.52 43.44 56.48 50.09 C 56.30 52.94 58.15 54.41 59.76 56.44 C 59.98 58.47 60.03 60.46 60.10 62.49 C 61.85 62.57 63.59 62.65 65.33 62.75 C 65.41 65.32 65.41 67.89 65.35 70.47 C 48.47 70.66 31.53 70.66 14.65 70.47 C 14.59 67.89 14.59 65.32 14.67 62.75 C 16.41 62.65 18.15 62.57 19.89 62.49 C 19.97 60.46 20.02 58.46 20.24 56.44 C 21.85 54.40 23.72 52.95 23.52 50.09 C 23.48 43.43 23.62 36.77 23.40 30.12 C 21.82 28.58 20.11 27.14 18.64 25.49 C 17.90 22.08 18.19 18.33 18.44 14.87 Z" fill="#000000" />
<path d="M 18.96 24.23 C 23.94 23.79 29.00 24.07 34.00 24.00 C 43.00 24.12 52.04 23.74 61.02 24.20 C 60.95 26.27 59.53 25.46 58.04 25.75 C 46.05 25.75 33.95 25.75 21.97 25.75 C 20.47 25.48 19.17 26.22 18.96 24.23 Z" fill="#ffffff" />
<path d="M 26.97 28.50 C 34.99 28.45 43.01 28.54 51.03 28.47 C 53.00 28.60 54.52 28.06 55.98 29.74 C 50.78 30.73 45.28 30.09 40.00 30.25 C 34.73 30.09 29.21 30.75 24.03 29.73 C 25.09 28.78 25.49 28.45 26.97 28.50 Z" fill="#ffffff" />
<path d="M 27.97 51.48 C 35.99 51.50 44.01 51.50 52.03 51.48 C 53.58 51.56 55.10 51.31 56.01 52.85 C 54.10 53.38 51.98 53.44 50.00 53.44 C 43.33 53.39 36.67 53.39 30.00 53.44 C 28.03 53.44 25.91 53.39 24.00 52.85 C 24.86 51.28 26.44 51.58 27.97 51.48 Z" fill="#ffffff" />
<path d="M 27.00 55.05 C 35.67 55.09 44.34 55.09 53.01 55.05 C 54.62 55.15 56.42 54.90 57.73 56.00 C 56.50 57.09 54.57 56.85 53.00 56.95 C 44.33 56.91 35.67 56.91 27.00 56.95 C 25.43 56.85 23.51 57.09 22.27 56.00 C 23.54 54.91 25.41 55.15 27.00 55.05 Z" fill="#ffffff" />
<path d="M 25.99 62.23 C 35.67 62.28 45.35 62.25 55.03 62.24 C 57.06 62.22 59.03 62.52 61.03 62.91 C 57.73 64.37 54.48 63.98 51.00 64.02 C 42.33 63.98 33.65 64.00 24.98 64.02 C 22.79 64.10 21.03 63.68 18.97 62.91 C 21.34 62.41 23.57 62.19 25.99 62.23 Z" fill="#ffffff" /></svg>