<svg viewBox="0 0 80 80" height="80.0pt" width="80.0pt" xmlns="http://www.w3.org/2000/svg" version="1.1">
<path d="M 44.94 11.12 C 46.58 13.87 45.61 16.34 43.97 18.77 C 50.21 22.18 55.34 26.76 56.84 34.01 C 57.87 39.04 55.67 43.47 51.83 46.62 C 54.14 49.74 55.76 53.67 54.43 57.52 C 52.50 59.83 48.33 60.59 45.57 61.66 C 51.58 61.87 57.90 61.56 63.82 62.55 C 66.42 63.23 68.81 65.09 70.69 66.97 L 70.13 68.93 C 67.30 71.47 64.31 69.60 61.01 69.41 C 53.87 68.72 47.11 70.15 39.99 68.29 C 31.56 70.49 23.32 68.07 14.85 70.08 C 12.48 70.65 9.40 69.95 9.36 67.02 C 11.03 64.71 13.28 62.91 16.17 62.50 C 22.34 61.62 28.18 61.84 34.43 61.66 C 31.61 60.59 27.61 59.84 25.56 57.54 C 24.26 53.64 25.83 49.78 28.16 46.63 C 24.33 43.46 22.12 39.05 23.15 34.01 C 24.66 26.76 29.79 22.19 36.02 18.76 C 34.39 16.33 33.43 13.87 35.06 11.11 C 37.42 7.69 42.58 7.69 44.94 11.12 Z" fill="#040404" />
<path d="M 38.45 11.49 C 41.89 9.54 44.77 14.42 41.79 16.76 C 38.18 19.26 34.99 13.83 38.45 11.49 Z" fill="#ffffff" />
<path d="M 40.00 20.04 C 44.30 21.93 48.26 24.02 51.15 27.86 C 54.00 31.42 55.30 36.24 53.51 40.59 C 52.31 43.06 49.98 45.21 47.04 44.93 C 41.73 44.86 36.37 45.11 31.07 44.79 C 26.18 43.16 24.82 37.62 26.14 33.04 C 28.19 26.36 33.86 22.60 40.00 20.04 Z" fill="#ffffff" />
<path d="M 39.15 26.31 C 42.10 25.60 41.11 28.61 41.57 30.44 C 42.91 30.63 44.52 30.49 45.70 31.17 C 46.40 34.10 43.39 33.11 41.57 33.56 C 41.37 34.90 41.51 36.51 40.83 37.69 C 37.91 38.41 38.88 35.35 38.43 33.54 C 35.68 33.26 34.84 33.96 33.79 30.97 C 35.33 30.78 36.87 30.62 38.42 30.47 C 38.61 29.12 38.51 27.52 39.15 26.31 Z" fill="#040404" />
<path d="M 31.13 47.76 C 36.39 47.22 41.81 47.57 47.10 47.54 C 49.63 47.16 50.77 50.29 52.12 51.93 C 44.05 52.04 35.94 52.04 27.87 51.93 C 28.90 50.45 29.81 48.99 31.13 47.76 Z" fill="#ffffff" />
<path d="M 27.03 54.75 C 35.60 54.50 44.39 54.50 52.96 54.75 C 51.95 55.89 51.39 57.11 49.81 57.47 C 44.00 59.23 36.88 59.21 31.03 57.74 C 29.02 57.34 28.23 56.32 27.03 54.75 Z" fill="#ffffff" />
<path d="M 40.00 62.26 C 46.93 65.15 53.77 64.34 61.04 64.92 C 63.67 65.05 65.55 66.07 67.55 67.68 C 58.92 65.26 50.38 67.46 41.72 65.83 C 38.53 65.31 35.25 66.62 32.00 66.50 C 25.27 66.47 18.82 66.01 12.22 67.71 C 13.41 66.66 14.33 65.58 16.00 65.39 C 24.22 63.87 32.02 65.65 40.00 62.26 Z" fill="#ffffff" /></svg>