<svg viewBox="0 0 80 80" height="80.0pt" width="80.0pt" xmlns="http://www.w3.org/2000/svg" version="1.1">
<path d="M 38.68 9.59 L 41.26 9.72 C 41.36 10.78 41.45 11.83 41.53 12.89 C 43.94 13.09 45.26 12.23 46.17 15.07 C 44.58 15.28 43.01 15.51 41.41 15.62 C 41.42 17.09 41.44 18.56 41.46 20.02 C 46.04 22.55 47.07 25.11 47.28 30.24 C 51.18 27.80 55.32 26.24 59.99 27.14 C 65.52 28.44 70.92 32.86 70.76 39.00 C 71.00 45.67 64.35 51.07 59.15 54.13 C 58.80 58.17 59.57 62.76 58.73 66.63 C 53.89 70.24 46.88 71.27 41.00 71.69 C 33.59 71.89 25.36 70.66 19.06 66.49 C 19.05 62.10 19.09 57.71 19.02 53.32 C 14.81 50.36 9.80 46.56 9.24 41.02 C 8.34 34.29 13.16 27.77 19.96 26.98 C 24.93 26.43 28.70 28.64 32.87 30.92 C 32.98 28.58 32.76 26.20 33.98 24.11 C 35.02 22.13 36.75 21.21 38.54 20.02 C 38.56 18.55 38.58 17.09 38.59 15.62 C 36.99 15.51 35.42 15.28 33.83 15.07 C 34.74 12.20 36.10 13.10 38.52 12.89 C 38.57 11.79 38.62 10.69 38.68 9.59 Z" fill="#040404" />
<path d="M 40.97 22.70 C 43.44 24.21 45.08 27.09 44.47 30.02 C 44.27 33.19 41.28 35.89 39.75 38.60 C 37.17 35.18 35.02 31.96 35.50 27.45 C 36.13 25.21 38.22 21.90 40.97 22.70 Z" fill="#ffffff" />
<path d="M 27.21 30.85 C 31.21 32.67 34.87 35.87 37.29 39.54 C 38.97 41.76 38.35 45.26 38.45 47.93 C 32.23 47.79 26.14 48.97 20.25 50.87 C 16.96 48.64 13.98 46.42 12.37 42.64 C 10.69 39.05 12.45 34.70 14.99 32.00 C 18.22 28.93 23.35 29.27 27.21 30.85 Z" fill="#ffffff" />
<path d="M 58.04 29.69 C 63.57 29.66 69.45 35.25 67.94 40.99 C 66.50 45.87 62.07 49.25 57.88 51.72 C 52.64 49.40 47.15 48.54 41.51 47.86 C 41.66 44.95 41.06 41.20 42.77 38.73 C 45.91 33.57 51.73 29.19 58.04 29.69 Z" fill="#ffffff" />
<path d="M 56.37 53.99 C 56.42 55.24 56.47 56.49 56.53 57.74 C 45.22 54.80 33.10 54.83 21.77 57.69 C 21.76 56.28 21.74 54.86 21.73 53.44 C 32.62 49.09 45.57 49.59 56.37 53.99 Z" fill="#ffffff" />
<path d="M 38.00 58.25 C 43.97 58.23 50.78 58.37 56.37 60.65 L 56.64 63.71 C 45.78 60.32 32.51 60.35 21.62 63.65 L 21.87 60.65 C 26.80 58.60 32.72 58.32 38.00 58.25 Z" fill="#ffffff" />
<path d="M 54.42 65.91 C 44.79 70.45 33.29 70.17 23.59 65.97 C 33.87 63.07 44.13 63.03 54.42 65.91 Z" fill="#ffffff" /></svg>