<svg viewBox="0 0 80 80" height="80.0pt" width="80.0pt" xmlns="http://www.w3.org/2000/svg" version="1.1">
<path d="M 37.10 10.63 C 39.80 11.93 39.91 14.03 40.62 16.64 C 45.60 17.39 50.31 18.57 54.43 21.58 C 61.69 26.63 65.56 35.51 67.02 43.99 C 69.03 52.79 69.05 61.61 68.94 70.58 C 54.38 70.58 39.82 70.62 25.26 70.57 C 25.55 67.61 25.46 64.79 26.80 62.09 C 29.11 57.49 33.68 54.48 36.60 50.54 C 38.87 47.38 39.48 43.84 40.16 40.11 C 37.88 42.21 35.68 44.34 33.18 46.19 C 30.46 48.26 27.75 49.81 25.59 52.53 C 23.91 54.37 22.78 56.57 19.96 56.58 C 19.03 56.06 18.12 55.51 17.22 54.92 C 15.04 54.51 12.50 54.83 11.01 52.87 C 8.89 49.83 9.04 45.18 10.59 41.92 C 13.01 36.74 15.80 31.72 18.66 26.77 C 19.98 24.41 21.93 22.39 23.06 19.95 C 23.31 17.39 20.80 11.81 24.95 11.57 C 27.41 12.51 29.24 15.22 31.06 17.04 C 33.04 14.85 34.88 12.59 37.10 10.63 Z" fill="#020202" />
<path d="M 37.39 13.78 C 37.55 15.37 37.69 16.96 37.83 18.56 C 42.76 19.67 48.25 20.53 52.51 23.45 C 56.87 26.48 59.18 31.04 61.16 35.81 C 64.76 46.32 65.46 56.96 65.08 67.98 C 52.64 68.01 40.20 68.02 27.76 67.98 C 28.63 65.16 29.23 62.51 31.20 60.22 C 34.22 56.72 37.72 54.17 40.05 50.03 C 42.15 46.56 42.35 42.93 42.62 39.00 C 42.77 36.14 44.11 33.86 43.92 31.03 L 42.10 30.56 C 40.33 38.18 34.26 41.97 28.39 46.37 C 25.16 48.50 23.03 51.45 20.65 54.41 C 20.90 51.98 23.11 49.74 20.06 48.37 C 17.05 48.63 17.92 49.92 17.22 52.21 C 15.29 51.87 13.64 52.43 12.69 50.29 C 10.95 46.54 12.86 43.61 14.36 40.23 C 17.24 34.67 20.19 28.95 23.85 23.87 C 24.90 22.42 25.66 20.83 26.39 19.20 C 25.91 17.71 25.48 16.22 25.09 14.71 C 26.40 16.11 27.57 17.67 28.98 18.97 C 30.30 19.17 31.67 19.18 33.08 19.02 C 34.67 17.42 35.93 15.50 37.39 13.78 Z" fill="#ffffff" />
<path d="M 26.14 24.03 C 27.59 23.58 28.47 24.18 28.80 25.82 C 28.22 28.10 27.17 30.11 25.04 31.26 C 22.93 30.80 22.52 30.26 23.04 28.13 C 23.58 26.48 24.73 25.02 26.14 24.03 Z" fill="#020202" />
<path d="M 16.96 42.72 C 17.52 43.92 19.06 45.55 17.64 46.71 C 16.51 48.44 13.21 47.03 13.78 44.95 C 14.33 43.25 15.49 43.25 16.96 42.72 Z" fill="#020202" /></svg>