<svg viewBox="0 0 80 80" height="80.0pt" width="80.0pt" xmlns="http://www.w3.org/2000/svg" version="1.1">
<path d="M 43.88 16.16 C 47.54 18.68 48.01 22.78 46.81 26.81 C 49.29 29.22 51.18 31.76 51.80 35.24 C 52.64 39.33 50.90 42.47 49.04 45.92 C 57.74 51.67 60.99 61.45 61.02 71.49 C 46.47 71.52 31.91 71.50 17.36 71.50 C 17.06 61.34 20.58 51.60 29.29 45.81 C 27.43 43.06 25.98 40.45 26.25 37.01 C 26.13 32.64 28.55 29.86 31.27 26.81 C 30.61 23.96 30.10 21.45 31.81 18.83 C 34.39 14.70 39.80 13.13 43.88 16.16 Z" fill="#020202" />
<path d="M 44.37 20.64 C 45.78 23.43 44.52 25.37 42.97 27.66 C 46.45 29.88 49.23 32.58 49.41 36.97 C 49.59 41.23 47.09 44.10 43.96 46.58 C 53.52 50.06 57.70 59.27 58.33 68.86 C 45.52 68.99 32.71 68.90 19.90 68.91 C 20.57 63.45 21.49 58.36 24.77 53.79 C 27.07 50.19 30.49 48.15 34.36 46.56 C 29.89 43.64 27.77 38.94 29.61 33.72 C 30.49 30.71 32.76 29.45 35.14 27.73 C 33.59 25.28 32.69 22.87 34.12 20.08 C 36.37 16.24 42.51 16.57 44.37 20.64 Z" fill="#ffffff" /></svg>