<svg viewBox="0 0 80 80" height="80.0pt" width="80.0pt" xmlns="http://www.w3.org/2000/svg" version="1.1">
<path d="M 38.08 8.92 C 41.04 7.54 44.72 9.81 44.96 13.02 C 45.24 15.33 42.99 16.96 41.66 18.59 C 42.92 25.45 44.54 32.23 45.87 39.08 C 48.09 32.98 50.63 26.97 53.13 20.97 C 52.00 19.48 50.05 18.03 50.23 16.00 C 50.12 13.61 51.96 11.80 54.11 11.13 C 57.58 10.26 61.08 14.27 59.72 17.58 C 58.98 18.98 57.61 20.14 56.52 21.28 C 56.48 27.46 56.48 33.65 56.52 39.84 C 59.52 34.95 62.64 30.13 65.74 25.29 C 65.33 23.68 64.14 21.64 64.71 20.01 C 65.41 17.30 68.44 15.82 71.03 16.83 C 73.76 17.65 75.16 21.21 73.66 23.64 C 72.75 25.50 70.42 25.90 68.67 26.68 C 67.64 32.18 66.62 37.65 65.92 43.20 C 65.48 45.51 65.55 48.08 63.94 49.91 C 62.28 51.97 60.64 54.04 59.10 56.20 C 60.66 59.51 62.70 63.19 62.80 66.96 C 62.50 68.15 62.19 69.34 60.81 69.60 C 57.34 70.51 53.56 70.45 50.00 70.71 C 40.20 71.34 30.28 71.03 20.53 69.93 C 18.05 69.65 16.93 68.43 16.33 66.04 C 17.34 62.45 19.25 59.55 20.95 56.29 C 18.40 52.10 14.51 49.79 14.34 44.98 C 13.53 38.82 12.51 32.78 11.33 26.68 C 9.58 25.89 7.25 25.50 6.33 23.64 C 4.84 21.21 6.24 17.65 8.97 16.83 C 11.56 15.82 14.59 17.31 15.29 20.02 C 15.85 21.64 14.67 23.68 14.26 25.29 C 17.36 30.12 20.48 34.95 23.48 39.84 C 23.52 33.33 23.53 26.81 23.48 20.30 C 21.12 18.10 18.70 16.17 20.71 12.68 C 22.83 8.68 28.92 9.81 29.70 14.18 C 30.22 17.02 28.46 18.15 26.82 20.05 C 29.38 26.24 31.76 32.52 34.16 38.77 C 35.55 32.04 37.08 25.34 38.34 18.58 C 37.27 17.38 35.98 16.16 35.23 14.73 C 34.50 12.31 35.82 9.90 38.08 8.92 Z" fill="#020202" />
<path d="M 39.99 10.98 C 41.05 11.54 42.02 12.23 43.01 12.90 C 42.22 13.75 41.48 14.74 40.54 15.41 C 38.78 15.88 38.19 14.16 37.29 13.04 L 37.70 12.34 C 38.42 11.79 39.18 11.33 39.99 10.98 Z" fill="#ffffff" />
<path d="M 23.42 13.52 C 25.26 11.99 26.38 13.36 27.29 15.02 C 26.61 16.12 26.56 17.40 24.99 17.35 C 23.01 17.59 21.61 14.59 23.42 13.52 Z" fill="#ffffff" />
<path d="M 57.34 16.50 C 56.66 17.41 55.75 18.20 54.94 18.99 C 54.04 17.39 51.83 16.32 53.56 14.48 C 55.02 12.56 57.86 14.53 57.34 16.50 Z" fill="#ffffff" />
<path d="M 9.41 19.46 C 11.43 18.07 11.91 19.67 13.19 21.00 C 12.83 22.66 11.51 23.94 9.78 23.30 C 8.13 22.81 8.25 20.47 9.41 19.46 Z" fill="#ffffff" />
<path d="M 68.38 19.29 C 69.71 17.88 72.26 20.69 71.29 22.23 C 70.73 23.91 68.55 23.73 67.47 22.61 C 66.35 20.72 67.07 20.61 68.38 19.29 Z" fill="#ffffff" />
<path d="M 40.00 23.78 L 40.10 24.23 C 41.56 30.36 42.38 36.60 43.77 42.75 C 41.25 42.74 38.74 42.75 36.23 42.77 C 37.65 36.47 38.49 30.07 40.00 23.78 Z" fill="#ffffff" />
<path d="M 26.17 26.02 C 28.72 31.58 30.68 37.36 33.02 43.00 C 30.75 43.08 28.49 43.17 26.22 43.31 C 26.28 37.55 26.29 31.78 26.17 26.02 Z" fill="#ffffff" />
<path d="M 53.76 26.69 C 53.76 32.19 53.72 37.70 53.77 43.20 C 51.52 43.09 49.27 42.97 47.02 42.85 C 49.38 37.50 51.31 31.99 53.76 26.69 Z" fill="#ffffff" />
<path d="M 14.68 31.12 C 17.54 35.24 20.15 39.54 22.91 43.75 C 21.01 44.03 19.10 44.32 17.20 44.61 C 16.38 40.11 15.55 35.61 14.68 31.12 Z" fill="#ffffff" />
<path d="M 65.33 31.12 C 64.46 35.59 63.62 40.05 62.83 44.53 C 60.95 44.23 59.07 43.94 57.19 43.65 C 59.33 40.29 61.45 36.93 63.62 33.60 C 64.19 32.77 64.76 31.95 65.33 31.12 Z" fill="#ffffff" />
<path d="M 62.74 47.28 C 61.35 48.90 59.94 50.50 58.54 52.11 C 46.36 50.63 33.64 50.62 21.45 52.11 C 20.05 50.50 18.64 48.90 17.25 47.29 C 32.24 44.99 47.75 44.99 62.74 47.28 Z" fill="#ffffff" />
<path d="M 57.29 53.72 C 57.13 55.06 56.97 56.39 56.82 57.73 C 55.89 58.14 54.97 58.60 54.08 59.09 C 55.99 60.30 58.15 61.05 59.98 62.46 C 53.29 62.57 46.70 61.49 40.00 61.73 C 33.24 61.49 26.58 62.44 19.84 62.47 C 21.73 61.05 23.98 60.33 25.93 59.09 C 25.03 58.59 24.10 58.14 23.15 57.73 C 23.01 56.39 22.87 55.05 22.72 53.72 C 34.30 52.72 45.72 52.73 57.29 53.72 Z" fill="#ffffff" />
<path d="M 30.56 57.64 C 37.70 57.43 45.21 57.08 52.28 58.02 C 53.79 59.32 51.97 59.45 50.94 59.47 C 45.63 59.11 40.32 58.93 35.00 59.14 C 32.55 59.00 29.31 60.09 27.12 59.01 C 27.31 57.42 29.46 57.83 30.56 57.64 Z" fill="#020202" />
<path d="M 34.00 63.62 C 41.65 63.43 49.38 63.56 56.99 64.40 C 58.87 64.51 59.65 65.41 60.82 66.74 C 57.60 67.50 54.31 67.88 51.01 68.08 C 41.20 68.72 31.19 68.67 21.45 67.26 C 19.71 67.02 19.49 66.58 18.58 65.11 C 23.51 63.92 28.93 63.84 34.00 63.62 Z" fill="#ffffff" /></svg>