<svg viewBox="0 0 80 80" height="80.0pt" width="80.0pt" xmlns="http://www.w3.org/2000/svg" version="1.1">
<path d="M 18.41 15.20 C 20.83 13.90 25.06 14.81 27.86 14.73 C 27.94 15.91 28.01 17.08 28.05 18.25 C 29.94 18.25 31.83 18.23 33.71 18.20 C 34.09 17.03 34.48 15.87 34.88 14.71 C 38.22 14.45 41.78 14.45 45.12 14.71 C 45.52 15.87 45.91 17.03 46.29 18.20 C 48.18 18.23 50.06 18.25 51.95 18.25 C 51.99 17.08 52.06 15.91 52.14 14.73 C 54.93 14.81 59.18 13.89 61.60 15.20 C 61.96 18.61 61.74 22.09 61.73 25.51 C 59.97 27.23 58.24 28.97 56.51 30.71 C 56.55 37.43 56.41 44.17 56.53 50.89 C 56.51 53.25 58.56 55.03 59.99 56.68 C 60.00 58.64 60.00 60.60 60.01 62.56 C 61.78 62.58 63.56 62.63 65.33 62.71 C 65.41 65.29 65.43 67.87 65.38 70.46 C 48.52 70.69 31.48 70.70 14.62 70.46 C 14.57 67.87 14.59 65.29 14.67 62.71 C 16.44 62.63 18.22 62.58 19.99 62.56 C 20.00 60.60 20.00 58.64 20.01 56.68 C 21.44 55.03 23.49 53.25 23.47 50.89 C 23.59 44.16 23.45 37.43 23.49 30.71 C 21.76 28.97 20.03 27.23 18.26 25.52 C 18.26 22.10 18.04 18.61 18.41 15.20 Z" fill="#070707" />
<path d="M 20.97 17.43 C 22.39 17.43 23.81 17.44 25.24 17.44 C 25.43 18.60 25.59 19.77 25.69 20.93 C 29.24 20.88 32.94 21.21 36.46 20.72 C 36.81 19.63 37.12 18.52 37.39 17.39 C 39.13 17.41 40.87 17.41 42.61 17.39 C 42.88 18.52 43.19 19.63 43.54 20.72 C 47.06 21.21 50.76 20.88 54.31 20.93 C 54.42 19.77 54.57 18.60 54.76 17.44 C 56.19 17.44 57.61 17.43 59.03 17.43 C 59.05 19.62 59.04 21.81 59.05 24.00 C 46.35 24.00 33.65 24.00 20.95 24.00 C 20.96 21.81 20.95 19.62 20.97 17.43 Z" fill="#ffffff" />
<path d="M 22.35 25.79 C 34.09 25.73 45.82 25.78 57.56 25.77 C 56.55 26.81 55.55 27.86 54.55 28.91 C 44.87 28.86 35.18 29.04 25.50 28.84 C 24.43 27.85 23.40 26.82 22.35 25.79 Z" fill="#ffffff" />
<path d="M 26.36 30.37 C 35.47 30.10 44.62 30.35 53.74 30.26 C 53.73 37.18 53.74 44.10 53.74 51.02 C 44.58 51.03 35.42 51.03 26.26 51.02 C 26.35 44.14 26.09 37.24 26.36 30.37 Z" fill="#ffffff" />
<path d="M 26.16 52.57 C 35.38 52.47 44.62 52.47 53.84 52.57 C 54.28 53.55 54.74 54.53 55.20 55.50 C 45.07 55.48 34.93 55.48 24.80 55.50 C 25.26 54.53 25.72 53.55 26.16 52.57 Z" fill="#ffffff" />
<path d="M 57.41 58.34 C 57.41 59.74 57.40 61.14 57.39 62.55 C 45.81 62.59 34.19 62.59 22.60 62.55 C 22.60 61.14 22.59 59.74 22.59 58.34 C 34.19 58.30 45.81 58.30 57.41 58.34 Z" fill="#ffffff" />
<path d="M 17.90 65.55 C 32.67 65.36 47.71 65.69 62.51 65.40 C 62.56 66.26 62.61 67.12 62.66 67.98 C 47.42 67.93 32.14 68.20 16.91 67.83 C 17.22 67.06 17.55 66.30 17.90 65.55 Z" fill="#ffffff" /></svg>