<svg viewBox="0 0 80 80" height="80.0pt" width="80.0pt" xmlns="http://www.w3.org/2000/svg" version="1.1">
<path d="M 32.99 5.80 C 36.59 5.00 37.75 7.25 39.15 10.04 C 38.30 11.43 37.46 12.83 36.63 14.24 C 37.82 15.44 39.02 16.63 40.24 17.80 C 41.54 16.47 42.79 15.11 44.02 13.73 C 43.41 12.44 42.77 11.17 42.08 9.92 C 43.34 7.02 44.04 6.35 47.04 5.22 C 48.91 6.31 50.95 6.51 51.23 9.04 C 51.88 10.73 50.51 12.29 49.99 13.85 C 54.11 19.38 57.80 25.06 59.00 31.99 C 60.25 39.58 58.73 46.89 55.85 53.91 C 55.10 57.54 55.57 61.45 54.88 65.15 C 59.58 64.58 64.36 63.75 69.06 64.71 C 71.21 65.13 73.80 66.05 75.19 67.83 C 76.63 70.09 77.46 73.02 76.43 75.61 C 75.58 76.42 73.73 75.44 72.67 75.38 C 64.79 73.47 56.99 73.87 48.98 74.36 C 44.66 68.51 35.36 68.55 31.03 74.36 C 21.82 73.62 12.97 73.71 3.98 76.07 C 1.86 72.80 3.97 66.93 7.72 65.71 C 13.05 63.36 19.56 64.44 25.13 65.16 C 24.65 61.57 24.45 58.14 24.57 54.53 C 21.47 49.47 19.44 43.96 19.16 38.00 C 19.89 28.76 25.90 21.22 31.37 14.18 C 29.34 11.44 29.00 6.87 32.99 5.80 Z" fill="#000000" />
<path d="M 45.39 20.58 C 48.93 23.52 51.22 28.22 52.80 32.46 C 54.25 36.83 55.27 42.73 53.01 46.97 C 48.92 42.42 49.31 35.87 46.48 30.59 C 44.54 27.06 41.92 23.97 40.01 20.40 C 42.08 19.97 43.49 19.11 45.39 20.58 Z" fill="#ffffff" />
<path d="M 34.94 47.02 C 41.28 46.37 47.75 46.21 53.12 50.12 C 53.09 51.23 53.06 52.34 53.03 53.45 C 48.80 52.64 44.31 50.86 40.01 50.90 C 35.51 50.75 31.29 52.50 26.97 53.46 C 26.94 52.34 26.91 51.22 26.89 50.10 C 29.43 48.63 31.96 47.32 34.94 47.02 Z" fill="#ffffff" />
<path d="M 42.78 54.19 L 43.55 55.03 C 41.06 56.14 39.05 56.22 36.55 55.06 C 37.12 52.90 41.66 52.67 42.78 54.19 Z" fill="#ffffff" />
<path d="M 28.55 55.07 C 30.38 54.56 31.12 56.44 29.36 57.25 C 27.58 57.63 26.78 55.88 28.55 55.07 Z" fill="#ffffff" />
<path d="M 49.87 55.33 C 50.93 54.44 53.14 55.48 52.23 56.92 C 51.11 57.89 48.96 56.81 49.87 55.33 Z" fill="#ffffff" />
<path d="M 52.12 61.87 C 51.99 63.01 51.86 64.15 51.73 65.29 C 47.50 63.76 43.62 62.20 38.99 62.49 C 35.15 62.63 31.84 64.05 28.28 65.29 C 28.14 64.15 28.00 63.00 27.86 61.86 C 35.07 57.78 45.00 57.45 52.12 61.87 Z" fill="#ffffff" /></svg>