<svg viewBox="0 0 80 80" height="80.0pt" width="80.0pt" xmlns="http://www.w3.org/2000/svg" version="1.1">
<path d="M 29.61 6.21 C 36.54 6.22 43.46 6.22 50.39 6.21 C 50.37 11.44 50.51 16.70 50.24 21.92 C 54.01 19.72 57.43 17.62 61.98 17.69 C 67.38 17.22 72.78 19.89 75.10 24.88 C 76.44 27.19 76.10 30.44 75.93 33.01 C 74.50 40.33 69.66 46.61 63.94 51.20 C 63.52 57.04 63.12 62.88 63.00 68.73 C 60.54 71.12 57.92 72.78 54.52 73.46 C 46.76 74.84 38.83 75.27 31.00 74.25 C 25.68 73.86 20.79 72.75 17.00 68.74 C 16.87 62.88 16.46 57.05 16.05 51.21 C 10.27 46.68 5.60 40.28 4.08 33.03 C 3.92 30.46 3.52 27.18 4.83 24.85 C 7.20 19.95 12.65 17.20 18.02 17.69 C 22.57 17.63 25.98 19.73 29.77 21.92 C 29.48 16.70 29.63 11.44 29.61 6.21 Z" fill="#000000" />
<path d="M 34.74 7.83 C 36.56 9.28 38.27 10.84 40.00 12.39 C 41.75 10.83 43.50 9.28 45.28 7.75 C 46.14 8.76 47.00 9.77 47.84 10.78 C 46.31 12.26 44.78 13.73 43.23 15.20 C 44.87 16.64 46.50 18.10 48.09 19.60 C 47.15 20.58 46.20 21.55 45.24 22.52 C 43.47 20.97 41.75 19.36 40.00 17.79 C 38.24 19.36 36.52 20.97 34.76 22.53 C 33.80 21.55 32.85 20.57 31.91 19.59 C 33.50 18.10 35.13 16.64 36.77 15.20 C 35.22 13.72 33.67 12.24 32.13 10.75 C 32.98 9.76 33.84 8.78 34.74 7.83 Z" fill="#ffffff" />
<path d="M 38.32 26.06 C 40.45 25.42 42.89 26.02 43.93 28.10 C 44.33 29.68 44.46 31.92 43.03 33.04 C 41.79 34.30 39.75 34.13 38.16 33.82 C 34.89 32.52 34.96 27.25 38.32 26.06 Z" fill="#ffffff" />
<path d="M 26.63 30.29 C 31.86 33.77 34.25 39.11 36.37 44.79 C 38.79 44.76 41.21 44.76 43.63 44.79 C 46.14 37.78 49.95 30.91 57.46 28.44 C 60.94 27.05 66.56 28.77 66.95 32.98 C 66.99 38.75 63.37 43.93 58.89 47.28 C 59.52 48.08 60.94 48.91 61.01 49.95 C 60.64 50.68 60.30 51.42 59.99 52.17 C 46.81 47.70 33.20 47.69 20.01 52.17 C 19.71 51.41 19.36 50.68 18.98 49.95 C 19.06 48.91 20.47 48.09 21.11 47.29 C 16.75 43.98 13.58 39.56 13.03 34.01 C 12.76 31.52 14.38 29.52 16.61 28.64 C 19.96 27.08 23.69 28.51 26.63 30.29 Z" fill="#ffffff" />
<path d="M 60.53 33.31 C 61.46 34.49 61.67 35.67 61.14 36.85 C 59.79 40.12 56.94 42.94 54.67 45.63 C 52.64 45.28 50.59 45.02 48.54 44.76 C 49.81 41.92 51.11 38.57 53.26 36.27 C 55.09 34.24 57.79 33.11 60.53 33.31 Z" fill="#000000" />
<path d="M 19.69 33.00 C 22.10 33.62 24.31 34.06 26.19 35.81 C 28.64 38.11 30.11 41.75 31.48 44.76 C 29.43 45.03 27.38 45.30 25.35 45.65 C 23.18 43.12 20.68 40.52 19.13 37.55 C 18.21 35.67 18.66 34.71 19.69 33.00 Z" fill="#000000" />
<path d="M 35.88 53.26 C 38.85 52.53 40.97 52.48 43.95 53.23 C 44.00 54.16 44.04 55.09 44.09 56.02 C 41.24 56.95 38.87 57.28 36.07 55.94 C 36.00 55.05 35.93 54.16 35.88 53.26 Z" fill="#ffffff" />
<path d="M 25.36 57.33 C 23.46 58.73 21.89 59.01 19.58 59.18 C 20.14 55.86 22.98 55.76 25.36 57.33 Z" fill="#ffffff" />
<path d="M 56.24 56.05 C 58.45 56.72 59.99 56.40 60.41 59.18 C 58.37 59.01 56.73 58.85 55.01 57.65 C 55.41 57.11 55.82 56.57 56.24 56.05 Z" fill="#ffffff" />
<path d="M 47.49 61.30 C 51.33 61.88 56.01 61.95 59.37 63.97 C 59.36 67.71 56.49 65.89 54.22 65.64 C 47.41 63.85 40.98 64.49 34.01 64.42 C 29.91 64.51 26.09 65.72 22.08 66.33 L 21.02 65.91 C 19.62 63.07 22.64 63.21 24.53 62.43 C 32.10 60.97 39.80 60.79 47.49 61.30 Z" fill="#ffffff" /></svg>