<svg viewBox="0 0 80 80" height="80.0pt" width="80.0pt" xmlns="http://www.w3.org/2000/svg" version="1.1">
<path d="M 27.54 5.08 C 29.99 9.06 32.47 12.53 37.26 13.76 C 42.27 14.75 47.12 15.77 51.58 18.38 C 60.86 23.47 66.79 32.51 69.35 42.62 C 72.28 52.81 71.41 63.11 68.90 73.28 C 55.25 73.23 41.59 73.29 27.95 73.26 C 25.83 72.96 23.98 73.73 23.36 71.08 C 23.92 68.01 25.74 65.12 27.74 62.78 C 30.15 59.95 33.81 59.15 36.23 56.18 C 39.89 51.84 40.64 46.68 40.73 41.18 C 37.02 44.41 34.71 48.00 29.30 48.12 C 27.60 50.64 25.95 53.68 23.58 55.62 C 21.55 57.25 19.16 57.68 16.62 57.81 C 18.20 55.13 20.79 53.90 22.93 51.82 C 24.00 50.25 23.85 46.24 20.98 47.58 C 16.78 48.83 17.57 53.44 14.57 55.64 C 12.71 56.85 11.44 54.88 10.22 53.73 C 8.23 51.44 7.04 47.74 9.16 45.16 C 12.16 41.61 15.06 38.33 17.16 34.11 C 17.86 32.33 17.93 30.33 18.50 28.50 C 19.42 25.20 21.51 22.90 23.01 19.98 C 21.69 15.89 20.76 12.41 20.96 8.04 C 22.80 9.72 24.67 11.34 26.78 12.70 C 27.17 10.17 27.44 7.64 27.54 5.08 Z" fill="#000000" />
<path d="M 29.44 16.29 C 30.01 17.37 30.58 18.44 31.15 19.51 C 32.39 20.64 33.78 21.08 33.75 23.02 C 34.55 26.24 29.60 26.90 28.50 24.50 C 27.11 22.02 28.52 18.71 29.44 16.29 Z" fill="#ffffff" />
<path d="M 41.93 17.51 C 47.94 18.13 52.86 22.99 56.80 27.18 C 62.31 33.00 65.90 39.92 66.75 47.96 C 67.26 55.29 67.56 62.93 66.23 70.18 C 65.15 70.16 64.08 70.13 63.01 70.11 C 63.24 59.87 64.17 50.34 60.42 40.50 C 58.27 33.89 53.66 29.82 48.81 25.18 C 45.98 22.59 42.39 21.74 39.36 19.65 C 39.10 18.05 40.46 17.16 41.93 17.51 Z" fill="#ffffff" />
<path d="M 21.17 30.03 C 23.28 30.15 26.32 29.55 28.04 30.96 C 29.05 32.01 29.71 33.43 30.45 34.67 C 28.15 34.95 25.88 35.24 23.63 35.81 C 22.41 34.23 20.91 33.11 19.26 31.99 C 19.90 31.34 20.53 30.68 21.17 30.03 Z" fill="#ffffff" />
<path d="M 18.53 46.62 C 16.05 48.73 14.25 51.13 10.77 51.42 C 11.16 49.09 10.48 47.10 12.87 45.75 C 14.50 44.45 16.85 46.19 18.53 46.62 Z" fill="#ffffff" /></svg>