<svg viewBox="0 0 80 80" height="80.0pt" width="80.0pt" xmlns="http://www.w3.org/2000/svg" version="1.1">
<path d="M 40.00 8.57 C 43.63 8.54 47.18 11.33 47.36 15.07 C 47.48 16.87 46.55 18.26 45.82 19.82 C 49.36 22.37 53.63 22.26 57.05 24.97 C 59.99 27.10 60.91 30.42 61.15 33.88 C 56.16 33.88 51.17 33.87 46.19 33.89 C 46.33 36.41 45.81 38.62 47.15 40.85 C 48.93 44.40 50.37 48.01 50.80 51.98 C 50.96 54.33 49.78 56.09 48.28 57.76 C 48.26 58.83 48.24 59.90 48.23 60.98 C 52.63 60.97 57.02 61.50 60.66 64.22 C 63.16 66.31 64.09 69.04 64.15 72.25 C 48.04 72.24 31.93 72.26 15.83 72.24 C 16.28 69.12 16.74 66.33 19.33 64.22 C 22.91 61.51 27.41 60.97 31.77 60.98 C 31.76 59.90 31.74 58.82 31.73 57.74 C 30.44 56.31 29.44 54.92 29.25 52.94 C 29.29 48.06 31.51 43.68 33.54 39.41 C 33.95 37.64 33.75 35.69 33.82 33.89 C 28.81 33.86 23.81 33.91 18.80 33.85 C 19.43 31.43 20.03 28.72 21.72 26.79 C 24.38 23.04 30.15 21.89 34.08 19.61 C 33.60 18.06 32.73 16.82 32.62 15.16 C 32.75 11.38 36.33 8.51 40.00 8.57 Z" fill="#000000" /></svg>