<svg viewBox="0 0 80 80" height="80.0pt" width="80.0pt" xmlns="http://www.w3.org/2000/svg" version="1.1">
<path d="M 32.05 8.04 C 34.94 9.66 34.41 13.15 33.11 15.67 C 35.26 20.46 37.68 25.14 39.95 29.88 C 42.47 25.21 44.87 20.48 47.32 15.77 C 46.25 13.46 45.21 11.29 47.19 9.09 C 49.78 5.78 55.31 6.91 56.40 10.97 C 57.12 14.17 55.21 15.55 52.96 17.24 C 54.72 24.17 56.19 31.18 58.18 38.05 C 61.28 35.26 64.68 32.89 67.89 30.26 C 67.79 28.53 67.84 26.82 67.98 25.09 C 69.67 24.42 71.15 23.28 73.05 23.83 C 74.24 24.14 75.14 25.32 76.06 26.11 C 76.06 27.37 76.07 28.63 76.08 29.89 C 74.73 31.14 73.39 31.97 71.72 32.74 C 69.09 38.41 66.34 44.10 64.00 49.89 C 63.05 56.14 62.62 62.57 62.06 68.87 C 55.03 73.76 47.30 74.24 39.00 74.32 C 32.76 74.04 26.83 73.91 21.17 70.91 C 19.89 70.13 18.49 69.57 18.24 67.90 C 17.46 61.93 17.13 55.80 16.01 49.88 C 13.76 44.07 11.13 38.36 8.65 32.64 C 6.53 31.81 4.84 31.13 4.13 28.75 C 3.55 24.86 8.18 22.02 11.36 24.63 C 13.24 26.48 13.05 27.86 12.58 30.30 C 15.65 32.96 18.89 35.39 21.95 38.07 C 23.76 31.14 25.73 24.25 27.36 17.28 C 25.59 15.68 23.76 14.74 23.97 12.00 C 24.17 8.10 28.77 5.81 32.05 8.04 Z" fill="#000000" />
<path d="M 58.19 47.92 C 60.13 48.67 62.65 50.99 59.80 52.50 C 55.84 51.74 52.11 50.28 48.03 49.94 C 42.09 49.43 36.03 49.40 30.10 50.17 C 26.74 50.69 23.54 51.88 20.21 52.50 C 19.13 52.01 18.73 51.22 19.03 50.13 C 20.58 47.70 24.40 47.00 27.01 46.35 C 37.11 44.31 48.43 44.37 58.19 47.92 Z" fill="#ffffff" />
<path d="M 42.53 53.18 C 44.33 54.11 43.90 55.02 44.01 56.73 C 41.13 57.45 38.96 57.60 36.09 56.70 C 36.04 55.88 36.02 55.07 36.04 54.26 C 37.54 52.46 40.44 53.00 42.53 53.18 Z" fill="#ffffff" />
<path d="M 24.78 57.13 C 25.86 59.55 21.11 59.96 19.65 60.03 C 20.21 57.12 22.10 56.56 24.78 57.13 Z" fill="#ffffff" />
<path d="M 60.33 60.24 C 58.06 59.92 56.50 59.20 54.59 57.95 C 57.54 56.24 59.85 56.53 60.33 60.24 Z" fill="#ffffff" />
<path d="M 40.00 61.00 C 46.30 61.02 52.51 60.72 58.09 64.17 C 58.01 65.15 57.93 66.14 57.85 67.13 C 45.88 64.05 34.12 64.06 22.15 67.13 C 22.07 66.14 21.99 65.15 21.92 64.16 C 27.52 60.72 33.67 61.02 40.00 61.00 Z" fill="#ffffff" /></svg>