<svg viewBox="0 0 80 80" height="80.0pt" width="80.0pt" xmlns="http://www.w3.org/2000/svg" version="1.1">
<path d="M 16.18 7.45 C 19.13 7.32 22.10 7.43 25.05 7.42 C 25.20 9.50 25.30 11.59 25.41 13.68 C 28.16 13.67 30.90 13.67 33.65 13.69 C 33.78 11.59 33.90 9.50 34.09 7.40 C 38.02 7.43 41.95 7.43 45.89 7.40 C 46.06 9.50 46.18 11.59 46.30 13.70 C 49.07 13.67 51.83 13.67 54.59 13.68 C 54.70 11.59 54.80 9.50 54.95 7.41 C 57.94 7.43 60.93 7.42 63.93 7.38 C 64.05 11.85 64.03 16.32 63.96 20.78 C 62.00 22.83 59.42 24.71 57.97 27.15 C 57.61 33.74 57.98 40.40 57.82 47.01 C 57.92 49.12 57.52 51.61 58.25 53.61 C 59.80 55.60 61.67 56.99 62.77 59.20 C 63.45 60.53 64.20 61.67 65.20 62.77 C 68.26 65.17 66.66 70.37 66.95 73.85 C 48.98 73.83 31.01 73.83 13.05 73.85 C 13.01 70.98 12.84 68.06 13.09 65.19 C 14.17 63.02 16.28 61.53 17.23 59.20 C 18.56 56.04 22.63 54.56 22.16 51.04 C 22.07 43.09 22.35 35.09 22.03 27.15 C 20.58 24.71 18.00 22.83 16.04 20.78 C 16.05 16.35 15.77 11.86 16.18 7.45 Z" fill="#010101" />
<path d="M 25.30 24.16 C 34.97 23.78 44.72 24.11 54.41 24.00 C 54.41 25.69 54.41 27.39 54.38 29.08 C 44.67 29.08 34.93 29.32 25.22 28.94 C 25.23 27.35 25.21 25.74 25.30 24.16 Z" fill="#ffffff" />
<path d="M 25.31 51.17 C 34.96 50.65 44.72 51.06 54.39 50.97 C 54.41 52.71 54.42 54.46 54.41 56.20 C 44.68 56.23 34.93 56.41 25.22 56.10 C 25.23 54.46 25.22 52.80 25.31 51.17 Z" fill="#ffffff" /></svg>