<svg viewBox="0 0 80 80" height="80.0pt" width="80.0pt" xmlns="http://www.w3.org/2000/svg" version="1.1">
<path d="M 35.91 5.98 C 37.48 6.32 38.30 8.74 39.11 9.94 C 38.36 11.43 37.56 12.86 36.64 14.25 C 37.77 15.47 38.99 16.65 40.20 17.79 C 41.53 16.47 42.76 15.11 44.03 13.74 C 43.34 12.46 42.74 11.15 42.07 9.86 C 43.33 7.05 44.16 6.34 47.03 5.17 C 49.94 6.48 50.57 7.08 51.73 10.07 C 51.11 11.29 50.54 12.56 49.88 13.76 C 53.77 18.84 57.08 23.96 58.67 30.26 C 60.24 37.33 59.19 45.05 56.63 51.77 C 54.73 55.85 55.70 60.56 54.89 65.14 C 60.80 64.36 68.20 63.13 73.60 66.37 C 76.29 67.86 78.21 73.61 75.99 76.00 C 66.91 73.87 58.31 73.55 49.04 74.40 C 44.63 68.45 35.40 68.55 30.96 74.40 C 21.68 73.55 13.09 73.86 4.01 76.00 C 1.89 73.72 3.57 68.52 5.82 66.79 C 11.08 63.02 19.14 64.34 25.12 65.14 C 24.66 61.58 24.49 58.12 24.55 54.53 C 22.24 50.69 20.41 46.68 19.63 42.23 C 18.39 37.96 19.60 34.13 21.02 30.10 C 23.57 24.20 27.36 19.31 31.28 14.29 C 30.15 12.28 29.59 10.43 30.14 8.13 C 31.15 6.00 33.75 5.04 35.91 5.98 Z" fill="#010101" />
<path d="M 34.01 8.03 C 35.19 7.73 35.83 9.52 36.51 10.24 C 35.63 10.83 34.75 11.41 33.87 11.99 C 33.33 11.41 32.80 10.80 32.29 10.18 C 32.53 9.38 32.87 7.64 34.01 8.03 Z" fill="#ffffff" />
<path d="M 48.01 8.03 C 49.40 10.25 48.16 10.58 47.06 12.43 C 46.29 11.62 45.56 10.77 44.89 9.89 C 45.84 8.05 45.77 7.80 48.01 8.03 Z" fill="#ffffff" />
<path d="M 46.96 14.74 C 48.88 17.27 50.68 19.95 52.21 22.73 C 56.48 29.90 57.86 38.40 55.10 46.39 C 54.03 40.18 52.54 34.30 48.87 29.07 C 46.85 25.91 44.25 23.04 41.75 20.25 C 43.48 18.41 45.15 16.49 46.96 14.74 Z" fill="#ffffff" />
<path d="M 34.03 15.64 C 37.78 19.00 41.08 22.92 44.06 26.98 C 49.14 34.24 53.59 41.18 51.94 50.52 C 43.64 47.83 34.72 47.75 26.41 50.44 C 24.41 47.55 22.37 44.69 22.09 41.05 C 21.66 36.43 23.26 32.32 25.20 28.23 C 27.43 23.50 29.98 19.06 34.03 15.64 Z" fill="#ffffff" />
<path d="M 39.00 51.56 C 43.64 51.54 48.22 51.81 52.61 53.45 C 51.99 54.98 51.22 56.39 50.31 57.76 C 50.89 58.09 51.47 58.43 52.04 58.78 C 52.08 59.86 52.12 60.95 52.16 62.04 C 49.45 61.44 46.79 61.03 44.00 61.02 C 38.51 61.03 33.20 60.68 27.82 62.05 C 27.88 60.96 27.93 59.86 27.98 58.77 C 28.62 58.41 29.19 58.03 29.69 57.62 C 28.56 56.27 27.95 55.18 27.56 53.45 C 31.24 51.84 35.05 51.75 39.00 51.56 Z" fill="#ffffff" />
<path d="M 43.84 55.97 C 42.70 56.66 41.43 58.11 40.00 57.92 C 38.57 58.10 37.30 56.66 36.16 55.97 C 39.16 54.87 40.83 54.87 43.84 55.97 Z" fill="#010101" />
<path d="M 36.06 63.37 C 41.51 63.26 46.50 62.85 51.57 65.26 C 48.26 67.59 43.92 67.21 40.00 67.41 C 36.01 67.20 31.82 67.62 28.43 65.25 C 30.87 64.20 33.38 63.45 36.06 63.37 Z" fill="#ffffff" />
<path d="M 24.25 67.63 C 27.71 68.10 31.10 68.78 34.51 69.55 C 25.57 72.87 14.76 71.68 5.31 72.31 C 6.19 70.67 6.23 68.90 8.17 68.22 C 12.97 66.11 19.19 66.92 24.25 67.63 Z" fill="#ffffff" />
<path d="M 68.80 67.23 C 72.39 68.11 73.51 68.64 74.68 72.31 C 65.25 71.68 54.42 72.86 45.49 69.56 C 52.91 67.99 61.23 66.17 68.80 67.23 Z" fill="#ffffff" /></svg>