<svg viewBox="0 0 80 80" height="80.0pt" width="80.0pt" xmlns="http://www.w3.org/2000/svg" version="1.1">
<path d="M 29.61 6.11 C 36.54 6.13 43.46 6.13 50.39 6.11 C 50.38 11.32 50.45 16.54 50.34 21.75 C 52.67 20.32 55.25 18.71 57.92 18.04 C 63.82 16.45 70.45 17.71 74.07 22.94 C 76.48 26.18 76.36 29.88 75.75 33.68 C 74.12 40.51 69.46 46.69 63.97 50.95 C 63.49 56.84 63.15 62.74 62.98 68.64 C 60.03 71.73 56.26 73.26 52.07 73.78 C 44.09 74.66 35.91 74.66 27.93 73.78 C 23.74 73.26 19.96 71.74 17.02 68.64 C 16.84 62.73 16.48 56.83 16.02 50.94 C 10.15 46.64 5.74 40.11 4.09 33.02 C 3.87 30.08 3.49 26.67 5.13 24.08 C 8.08 18.86 14.24 16.59 20.00 17.62 C 23.64 18.09 26.62 19.84 29.66 21.75 C 29.55 16.54 29.61 11.32 29.61 6.11 Z" fill="#000000" />
<path d="M 33.72 9.12 C 37.91 9.16 42.09 9.16 46.27 9.11 C 44.23 11.15 42.15 13.13 40.00 15.06 C 37.86 13.13 35.77 11.16 33.72 9.12 Z" fill="#ffffff" />
<path d="M 32.32 10.79 C 34.26 12.78 36.24 14.73 38.25 16.65 C 36.33 18.66 34.38 20.65 32.42 22.62 C 32.42 18.68 32.46 14.73 32.32 10.79 Z" fill="#ffffff" />
<path d="M 47.68 10.79 C 47.54 14.74 47.57 18.68 47.58 22.62 C 45.61 20.65 43.67 18.66 41.75 16.65 C 43.76 14.73 45.74 12.78 47.68 10.79 Z" fill="#ffffff" />
<path d="M 40.01 18.30 C 42.05 20.16 44.01 22.12 46.02 24.02 C 42.01 23.99 38.00 23.99 33.99 24.02 C 36.00 22.12 37.96 20.16 40.01 18.30 Z" fill="#ffffff" />
<path d="M 12.54 21.37 C 17.94 19.61 24.05 20.89 28.27 24.71 C 34.04 29.78 36.70 36.41 38.98 43.54 C 31.32 43.84 24.13 44.16 17.30 48.09 C 12.20 43.64 7.38 38.09 6.95 31.01 C 6.51 26.94 8.89 23.09 12.54 21.37 Z" fill="#ffffff" />
<path d="M 59.92 20.83 C 64.00 20.24 68.18 20.61 70.88 24.08 C 73.63 27.28 73.44 31.44 72.31 35.26 C 70.52 40.59 66.89 44.52 62.70 48.09 C 55.86 44.34 48.65 43.85 41.02 43.54 C 43.00 37.33 45.23 31.59 49.69 26.69 C 52.42 23.73 55.84 21.34 59.92 20.83 Z" fill="#ffffff" />
<path d="M 33.73 26.92 C 37.91 26.92 42.09 26.92 46.27 26.91 C 43.71 29.96 42.08 33.46 40.22 36.93 L 39.77 36.86 C 37.89 33.43 36.28 29.94 33.73 26.92 Z" fill="#ffffff" />
<path d="M 37.16 46.52 C 45.18 46.19 53.84 47.26 61.05 50.98 C 60.80 52.64 60.56 54.30 60.33 55.97 C 58.82 55.95 57.31 55.97 55.81 55.97 C 57.16 57.48 58.51 59.00 59.88 60.49 C 59.93 61.72 59.98 62.94 60.04 64.17 C 54.30 60.29 46.71 59.87 40.00 59.96 C 33.29 59.87 25.70 60.30 19.96 64.17 C 20.02 62.94 20.07 61.72 20.11 60.49 C 21.49 59.00 22.83 57.48 24.19 55.98 C 22.68 55.97 21.18 55.95 19.67 55.96 C 19.44 54.30 19.20 52.63 18.95 50.97 C 24.64 48.01 30.82 46.94 37.16 46.52 Z" fill="#ffffff" />
<path d="M 45.39 53.67 C 42.33 56.22 37.66 56.22 34.61 53.66 C 37.13 50.84 42.87 50.82 45.39 53.67 Z" fill="#000000" />
<path d="M 43.00 62.98 C 48.09 63.28 54.59 63.41 58.93 66.39 C 59.54 68.73 56.65 69.54 54.96 70.09 C 45.80 72.30 35.99 72.29 26.75 70.52 C 23.98 69.81 21.53 69.49 20.66 66.35 C 27.28 62.82 35.69 62.90 43.00 62.98 Z" fill="#ffffff" /></svg>