<svg viewBox="0 0 80 80" height="80.0pt" width="80.0pt" xmlns="http://www.w3.org/2000/svg" version="1.1">
<path d="M 28.26 4.22 C 30.12 6.76 32.01 9.26 34.16 11.56 C 40.30 11.80 46.08 12.37 51.52 15.50 C 61.75 21.51 67.84 31.59 71.17 42.75 C 74.51 52.79 74.73 63.51 71.87 73.70 C 56.23 73.77 40.59 73.72 24.95 73.89 C 22.40 70.04 21.50 65.59 24.84 61.88 C 29.92 57.34 35.26 53.74 38.92 47.77 C 35.36 47.98 31.81 48.19 28.24 48.03 C 26.49 50.66 24.42 54.13 21.45 55.50 C 19.45 56.45 17.60 56.07 15.53 55.76 C 12.60 56.52 9.65 55.92 7.50 53.74 C 5.99 51.58 5.84 48.98 6.41 46.48 C 8.47 39.77 15.25 37.09 16.91 29.99 C 17.65 26.96 19.74 25.28 21.74 23.07 C 20.98 18.46 20.76 13.77 20.42 9.12 C 22.19 10.44 23.96 11.77 25.70 13.14 C 25.81 9.72 26.68 7.19 28.26 4.22 Z" fill="#000000" />
<path d="M 28.94 10.82 C 31.07 12.52 33.10 14.31 35.37 15.83 C 37.27 15.42 39.17 15.02 41.07 14.62 C 41.59 15.58 42.11 16.54 42.62 17.50 C 44.05 17.29 45.48 17.09 46.90 16.90 C 47.14 17.75 47.37 18.60 47.60 19.46 C 48.54 19.26 49.48 19.07 50.41 18.88 C 51.00 19.93 51.33 21.62 52.32 22.34 C 53.70 22.78 55.15 23.02 56.56 23.31 C 56.80 24.82 57.03 26.33 57.27 27.84 C 58.94 27.94 60.60 28.04 62.26 28.14 C 61.81 29.77 61.34 31.39 60.88 33.02 C 62.68 34.16 64.48 35.29 66.28 36.43 C 65.60 38.19 64.90 39.95 64.22 41.71 C 66.10 42.93 67.97 44.17 69.86 45.37 C 68.87 47.03 67.88 48.71 66.88 50.38 C 68.15 51.67 69.40 52.98 70.65 54.29 C 69.53 56.14 68.41 57.97 67.28 59.80 C 68.32 60.96 69.36 62.13 70.40 63.29 C 69.72 65.78 69.03 68.27 68.39 70.78 C 54.15 68.88 39.95 69.26 25.69 70.66 C 25.37 68.57 24.47 66.97 26.08 65.15 C 29.99 61.28 34.62 58.49 37.93 53.95 C 40.88 50.44 41.70 46.37 42.88 42.07 C 37.66 46.50 29.69 45.25 23.59 43.74 C 24.31 45.13 25.05 46.51 25.82 47.86 C 23.57 50.93 21.81 52.94 17.80 53.46 C 17.92 51.81 18.06 50.17 18.20 48.53 C 16.23 50.03 14.34 51.60 12.49 53.25 C 11.25 52.80 10.02 52.32 8.80 51.83 C 8.69 49.78 8.21 47.15 9.15 45.27 C 11.38 42.03 15.00 39.48 17.03 36.04 C 18.35 33.13 18.58 30.22 20.69 27.65 C 22.97 24.91 24.88 22.22 26.63 19.11 C 28.27 20.16 29.90 21.20 31.54 22.24 C 31.06 19.37 29.45 17.24 28.18 14.72 C 27.57 13.58 28.56 11.93 28.94 10.82 Z" fill="#ffffff" />
<path d="M 22.97 15.04 C 23.88 15.01 24.78 15.03 25.68 15.11 C 25.93 16.52 26.11 17.93 26.23 19.35 C 25.27 19.07 24.32 18.75 23.39 18.40 C 23.01 17.36 22.87 16.24 22.97 15.04 Z" fill="#ffffff" />
<path d="M 27.17 29.12 C 29.49 29.02 31.94 30.39 34.10 31.13 C 30.97 32.92 28.24 34.24 24.53 34.24 C 25.09 31.96 24.51 30.04 27.17 29.12 Z" fill="#000000" />
<path d="M 16.08 46.09 C 15.52 48.06 13.73 48.44 11.94 47.94 C 12.58 46.07 14.33 45.75 16.08 46.09 Z" fill="#000000" /></svg>