<svg viewBox="0 0 80 80" height="80.0pt" width="80.0pt" xmlns="http://www.w3.org/2000/svg" version="1.1">
<path d="M 40.01 8.57 C 43.63 8.54 47.20 11.34 47.37 15.08 C 47.49 16.83 46.53 18.29 45.82 19.81 C 49.36 22.34 53.62 22.27 57.06 24.95 C 60.02 27.10 60.91 30.40 61.16 33.89 C 56.16 33.88 51.17 33.88 46.18 33.89 C 46.32 36.42 45.81 38.63 47.14 40.86 C 48.96 44.45 50.41 48.02 50.84 52.05 C 50.97 54.40 49.76 56.10 48.27 57.77 C 48.25 58.84 48.24 59.91 48.23 60.98 C 52.61 60.96 57.05 61.49 60.65 64.21 C 63.18 66.30 64.06 69.05 64.16 72.25 C 48.04 72.24 31.93 72.25 15.81 72.24 C 16.30 69.40 16.55 66.85 18.75 64.75 C 22.03 61.64 27.43 60.92 31.77 60.98 C 31.76 59.90 31.75 58.83 31.73 57.76 C 30.17 56.10 29.27 54.36 29.26 52.04 C 29.65 48.05 31.08 44.42 32.86 40.87 C 34.18 38.64 33.68 36.41 33.82 33.89 C 28.81 33.87 23.80 33.90 18.79 33.86 C 19.46 31.34 19.98 28.83 21.71 26.78 C 24.41 23.04 30.11 21.87 34.10 19.62 C 33.56 18.20 32.75 16.70 32.62 15.20 C 32.70 11.42 36.35 8.49 40.01 8.57 Z" fill="#010101" />
<path d="M 37.41 12.31 C 39.13 11.55 40.92 12.00 42.75 12.09 C 43.84 13.90 44.03 15.38 44.09 17.45 C 43.32 18.15 42.55 18.86 41.78 19.56 C 43.89 21.60 45.84 23.49 48.75 24.31 C 52.66 25.66 56.21 26.59 57.30 31.13 C 45.78 31.21 34.23 31.22 22.71 31.13 C 24.13 26.98 27.33 25.54 31.23 24.34 C 34.28 23.55 36.18 21.70 38.22 19.44 C 37.44 18.81 36.66 18.19 35.88 17.55 C 36.09 15.51 35.68 13.81 37.41 12.31 Z" fill="#ffffff" />
<path d="M 37.04 33.92 C 39.01 33.92 40.98 33.92 42.95 33.92 C 43.05 36.48 42.51 38.91 43.82 41.16 C 46.20 45.97 48.44 50.31 47.00 55.87 C 46.30 56.38 45.61 56.89 44.92 57.40 C 45.37 59.44 45.84 61.48 46.22 63.53 C 51.67 64.06 57.02 63.64 60.07 69.06 C 46.58 69.11 33.08 69.17 19.59 69.03 C 22.66 63.71 28.40 64.03 33.78 63.53 C 34.16 61.54 34.61 59.55 35.00 57.56 C 33.74 56.16 32.64 55.05 32.54 53.04 C 31.91 48.24 35.11 43.74 36.87 39.53 C 37.20 37.71 37.02 35.77 37.04 33.92 Z" fill="#ffffff" /></svg>