<svg viewBox="0 0 80 80" height="80.0pt" width="80.0pt" xmlns="http://www.w3.org/2000/svg" version="1.1">
<path d="M 32.05 8.02 C 34.91 9.67 34.54 13.09 33.09 15.60 C 35.26 20.34 37.52 25.06 39.93 29.68 C 42.66 25.20 44.82 20.37 47.33 15.76 C 46.24 13.46 45.22 11.31 47.18 9.10 C 49.79 5.79 55.31 6.86 56.41 10.96 C 57.12 14.17 55.23 15.56 52.96 17.24 C 54.75 24.16 56.14 31.21 58.23 38.04 C 61.28 35.22 64.69 32.89 67.90 30.26 C 67.79 28.53 67.84 26.83 67.99 25.10 C 69.70 24.40 71.10 23.31 73.04 23.83 C 74.25 24.12 75.13 25.32 76.06 26.11 C 76.06 27.38 76.07 28.65 76.09 29.92 C 73.88 31.85 71.37 32.38 70.38 35.44 C 68.35 40.48 65.60 45.32 63.86 50.44 C 63.13 56.56 62.54 62.74 62.06 68.88 C 54.72 73.94 46.62 74.31 37.99 74.27 C 31.48 73.99 24.69 73.58 19.19 69.65 C 17.61 68.19 18.10 64.96 17.71 62.98 C 17.02 58.44 16.99 53.67 15.81 49.25 C 13.50 43.69 11.08 38.15 8.65 32.64 C 6.51 31.85 4.85 31.13 4.14 28.77 C 3.51 24.87 8.20 22.04 11.36 24.64 C 13.21 26.50 13.07 27.85 12.57 30.29 C 15.62 32.97 18.88 35.38 21.95 38.03 C 23.77 31.10 25.73 24.21 27.37 17.24 C 25.57 15.67 23.77 14.73 23.97 12.00 C 24.15 8.09 28.77 5.80 32.05 8.02 Z" fill="#010101" />
<path d="M 27.15 10.14 C 28.87 9.64 31.07 9.05 31.83 11.22 C 32.45 13.57 30.63 15.49 28.26 14.81 C 26.14 13.95 26.65 11.91 27.15 10.14 Z" fill="#ffffff" />
<path d="M 49.12 10.06 C 50.47 9.64 51.75 9.59 52.95 9.90 C 54.19 10.95 53.92 12.39 54.23 13.86 C 52.81 14.29 50.99 15.66 49.66 14.37 C 48.27 13.64 48.73 11.27 49.12 10.06 Z" fill="#ffffff" />
<path d="M 31.00 17.10 C 34.39 22.95 36.95 29.28 40.00 35.32 C 42.97 29.28 45.92 23.23 48.92 17.21 C 50.21 17.77 50.94 18.70 51.09 20.00 C 52.99 27.42 54.85 34.84 56.83 42.24 C 60.91 38.92 65.05 35.70 69.25 32.54 C 66.59 37.61 64.27 42.86 61.80 48.01 C 54.87 45.06 47.54 43.55 40.00 43.92 C 32.47 43.54 25.16 45.26 18.20 48.03 C 16.76 44.85 15.29 41.68 13.77 38.54 C 15.00 38.25 16.20 37.82 17.38 37.26 C 19.31 38.94 21.25 40.60 23.27 42.18 C 25.18 35.12 27.19 28.10 29.04 21.02 C 29.36 19.53 30.14 18.34 31.00 17.10 Z" fill="#ffffff" />
<path d="M 9.63 25.89 C 10.04 26.58 10.45 27.27 10.85 27.96 C 10.47 28.64 10.08 29.32 9.70 30.01 C 8.85 30.02 8.00 30.04 7.15 30.05 C 6.76 29.32 6.38 28.59 6.01 27.85 C 7.16 25.93 7.43 25.93 9.63 25.89 Z" fill="#ffffff" />
<path d="M 71.93 25.99 C 73.93 25.95 73.86 28.51 73.92 29.92 C 72.59 30.02 71.25 30.08 69.91 30.11 C 70.02 28.52 69.45 25.76 71.93 25.99 Z" fill="#ffffff" />
<path d="M 10.77 31.70 C 12.17 32.92 13.59 34.12 15.02 35.31 C 14.45 36.26 13.89 37.22 13.34 38.18 C 12.60 35.98 11.72 33.83 10.77 31.70 Z" fill="#ffffff" />
<path d="M 60.83 50.85 C 60.56 52.55 60.30 54.26 60.04 55.96 C 58.59 55.97 57.15 55.97 55.70 55.98 C 57.07 57.47 58.44 58.96 59.83 60.44 C 59.86 61.69 59.91 62.94 59.95 64.19 C 53.58 60.82 47.05 60.67 40.02 60.15 C 33.09 60.28 26.35 60.90 20.13 64.17 C 20.17 62.91 20.20 61.66 20.23 60.41 C 21.60 58.94 22.97 57.46 24.32 55.97 C 22.87 55.97 21.42 55.97 19.96 55.96 C 19.72 54.25 19.48 52.54 19.23 50.83 C 31.25 44.79 48.84 44.76 60.83 50.85 Z" fill="#ffffff" />
<path d="M 36.31 52.37 C 38.62 51.66 41.40 51.83 43.75 52.28 C 45.37 54.04 44.02 55.26 42.02 55.34 C 40.01 55.61 38.00 55.46 36.05 54.93 C 35.37 53.63 35.46 52.78 36.31 52.37 Z" fill="#010101" />
<path d="M 46.99 63.15 C 51.55 63.69 55.80 63.97 59.47 67.07 C 57.87 68.71 56.39 69.89 54.06 70.27 C 44.56 72.28 34.49 72.28 25.04 70.06 C 23.00 69.67 21.80 68.39 20.43 66.96 C 22.24 65.71 24.04 64.61 26.23 64.19 C 32.99 62.70 40.12 62.63 46.99 63.15 Z" fill="#ffffff" /></svg>