<svg viewBox="0 0 80 80" height="80.0pt" width="80.0pt" xmlns="http://www.w3.org/2000/svg" version="1.1">
<path d="M 16.00 7.41 C 19.11 7.44 22.22 7.43 25.33 7.43 C 25.33 9.51 25.33 11.59 25.32 13.67 C 28.15 13.68 30.98 13.68 33.81 13.68 C 33.82 11.59 33.82 9.51 33.81 7.43 C 37.93 7.44 42.05 7.44 46.17 7.42 C 46.17 9.51 46.17 11.59 46.17 13.68 C 49.00 13.68 51.84 13.68 54.68 13.67 C 54.67 11.59 54.67 9.51 54.67 7.43 C 57.78 7.43 60.89 7.44 64.00 7.41 C 64.00 11.85 64.00 16.28 63.99 20.71 C 62.03 22.62 59.90 24.44 58.16 26.56 C 57.72 27.94 57.88 29.56 57.82 31.00 C 57.86 38.50 57.83 46.00 57.86 53.50 C 59.58 55.17 61.28 56.86 62.99 58.55 C 63.00 59.28 63.00 60.01 63.00 60.74 C 64.34 61.97 65.66 63.20 67.00 64.42 C 67.00 67.56 67.00 70.70 67.00 73.84 C 49.00 73.83 31.00 73.83 13.00 73.84 C 13.00 70.75 13.01 67.66 13.00 64.57 C 14.33 63.30 15.65 62.03 16.99 60.77 C 17.02 60.02 17.05 59.27 17.08 58.52 C 18.77 56.84 20.44 55.16 22.14 53.49 C 22.17 44.61 22.15 35.72 22.16 26.83 C 20.09 24.83 18.06 22.79 15.98 20.80 C 16.01 16.34 16.00 11.87 16.00 7.41 Z" fill="#000000" />
<path d="M 18.97 10.30 C 20.06 10.30 21.14 10.30 22.23 10.30 C 22.22 12.34 22.21 14.38 22.21 16.42 C 27.14 16.42 32.07 16.42 37.00 16.42 C 37.00 14.38 37.00 12.34 37.00 10.30 C 39.00 10.30 41.00 10.31 42.99 10.31 C 42.99 12.35 42.99 14.39 42.99 16.43 C 47.90 16.42 52.81 16.42 57.72 16.42 C 57.71 14.37 57.70 12.33 57.71 10.29 C 58.81 10.29 59.92 10.31 61.03 10.32 C 61.03 13.45 61.03 16.59 61.03 19.73 C 59.22 21.46 57.42 23.20 55.61 24.94 C 45.15 24.92 34.70 24.92 24.24 24.94 C 22.49 23.22 20.74 21.50 18.97 19.80 C 18.97 16.63 18.97 13.47 18.97 10.30 Z" fill="#ffffff" />
<path d="M 25.44 27.97 C 35.15 27.98 44.85 27.98 54.56 27.97 C 54.56 35.98 54.56 43.99 54.56 52.00 C 44.85 52.06 35.15 52.00 25.44 52.03 C 25.44 44.01 25.44 35.99 25.44 27.97 Z" fill="#ffffff" />
<path d="M 25.94 55.01 C 35.97 54.93 46.00 55.05 56.03 54.97 C 57.86 56.84 59.22 58.70 60.36 61.06 C 61.53 62.33 62.87 63.54 63.84 64.97 C 64.07 66.86 64.05 68.79 64.10 70.69 C 48.05 70.62 32.00 70.72 15.95 70.64 C 16.02 68.76 16.00 66.84 16.26 64.97 C 17.23 63.56 18.53 62.36 19.69 61.10 C 20.76 58.69 22.78 54.64 25.94 55.01 Z" fill="#ffffff" /></svg>