<svg viewBox="0 0 80 80" height="80.0pt" width="80.0pt" xmlns="http://www.w3.org/2000/svg" version="1.1">
<path d="M 44.54 8.39 C 45.57 9.97 45.23 11.96 45.11 13.74 C 44.28 14.46 43.45 15.19 42.62 15.93 C 49.52 20.92 57.32 25.61 59.82 34.34 C 61.36 40.98 56.87 45.66 52.90 50.29 C 52.88 53.53 53.99 56.24 55.28 59.14 C 52.64 59.11 49.99 59.12 47.35 59.13 C 48.03 60.09 48.70 61.06 49.37 62.04 C 52.89 62.72 56.42 62.76 60.00 62.66 C 63.11 62.74 66.02 62.20 68.62 64.30 C 71.26 66.26 71.56 68.96 72.20 71.94 C 66.80 72.01 61.40 71.95 56.00 72.00 C 53.03 72.00 50.20 72.08 47.41 70.88 C 43.65 69.07 40.58 66.00 40.00 61.71 C 39.10 67.77 33.02 72.10 27.05 71.97 C 20.64 72.00 14.22 71.99 7.80 71.94 C 8.43 67.81 9.67 64.18 14.09 62.92 C 19.58 62.22 25.07 63.25 30.57 62.04 C 31.26 61.06 31.96 60.09 32.67 59.12 C 30.01 59.12 27.36 59.11 24.71 59.14 C 25.98 56.24 27.11 53.53 27.10 50.29 C 23.13 45.66 18.63 40.98 20.19 34.33 C 22.67 25.56 30.42 20.94 37.35 15.95 C 36.54 15.20 35.71 14.46 34.88 13.72 C 34.73 11.45 34.30 9.03 36.36 7.44 C 38.93 5.32 42.52 5.82 44.54 8.39 Z" fill="#000000" />
<path d="M 38.16 27.97 C 39.39 27.97 40.61 27.97 41.84 27.97 C 41.84 29.31 41.85 30.65 41.87 31.99 C 43.09 32.00 44.30 32.00 45.52 32.01 C 45.51 33.14 45.49 34.26 45.47 35.38 C 44.26 35.38 43.06 35.37 41.86 35.37 C 41.85 37.54 41.85 39.71 41.85 41.88 C 40.62 41.88 39.38 41.88 38.15 41.88 C 38.15 39.71 38.14 37.54 38.14 35.36 C 36.94 35.37 35.73 35.38 34.53 35.39 C 34.51 34.26 34.49 33.14 34.48 32.01 C 35.70 32.00 36.92 32.00 38.14 31.99 C 38.15 30.65 38.16 29.31 38.16 27.97 Z" fill="#ffffff" />
<path d="M 51.18 47.55 C 50.62 48.48 50.07 49.40 49.53 50.34 C 42.59 48.49 37.41 48.49 30.47 50.34 C 29.93 49.40 29.38 48.47 28.82 47.55 C 35.91 45.27 44.09 45.29 51.18 47.55 Z" fill="#ffffff" />
<path d="M 30.42 53.23 C 36.82 53.01 43.26 53.28 49.67 53.12 C 50.16 54.26 50.63 55.39 51.09 56.54 C 43.68 56.55 36.26 56.57 28.85 56.53 C 29.34 55.40 29.81 54.29 30.42 53.23 Z" fill="#ffffff" /></svg>