<svg viewBox="0 0 80 80" height="80.0pt" width="80.0pt" xmlns="http://www.w3.org/2000/svg" version="1.1">
<path d="M 38.10 8.00 C 39.37 8.00 40.64 8.00 41.90 8.00 C 41.89 9.33 41.87 10.66 41.85 11.99 C 43.25 11.98 44.65 11.97 46.04 11.96 C 46.04 13.08 46.04 14.20 46.03 15.32 C 44.64 15.31 43.24 15.30 41.85 15.29 C 41.84 17.19 41.77 19.13 41.98 21.02 C 43.86 22.69 45.70 24.32 47.27 26.30 C 50.35 24.09 52.98 21.90 56.97 21.68 C 65.79 21.30 74.60 30.54 72.62 39.48 C 70.96 47.35 65.56 52.69 59.94 57.98 C 61.08 62.57 61.68 67.29 62.39 71.97 C 47.46 71.98 32.54 71.98 17.61 71.97 C 18.32 67.30 18.92 62.57 20.06 57.99 C 15.62 53.77 11.42 49.82 8.86 44.11 C 6.65 39.39 6.37 33.82 9.32 29.34 C 12.45 25.16 16.52 21.86 21.97 21.68 C 26.45 21.49 29.33 23.85 32.72 26.33 C 34.33 24.27 36.00 22.58 38.15 21.08 C 38.15 19.15 38.14 17.21 38.13 15.28 C 36.74 15.30 35.35 15.31 33.97 15.33 C 33.96 14.21 33.96 13.08 33.96 11.96 C 35.36 11.97 36.75 11.98 38.15 11.99 C 38.13 10.66 38.12 9.33 38.10 8.00 Z" fill="#000000" />
<path d="M 39.23 24.03 C 41.75 23.36 43.85 27.02 45.29 28.62 C 42.71 32.06 41.23 35.94 39.95 40.00 C 38.81 35.89 37.24 32.10 34.71 28.64 C 36.07 26.93 37.28 25.11 39.23 24.03 Z" fill="#ffffff" />
<path d="M 20.97 24.61 C 26.10 23.78 31.18 28.30 33.69 32.37 C 37.31 38.58 39.35 45.83 39.99 52.96 C 40.58 45.80 42.68 38.58 46.30 32.36 C 48.83 28.26 53.87 23.78 59.03 24.61 C 65.63 25.80 71.70 32.91 69.66 39.82 C 67.86 46.89 61.59 52.17 56.58 57.10 C 51.13 55.44 45.75 54.07 40.00 54.13 C 34.23 54.07 28.89 55.43 23.42 57.10 C 18.42 52.20 12.13 46.86 10.33 39.82 C 8.30 32.92 14.35 25.78 20.97 24.61 Z" fill="#ffffff" />
<path d="M 39.95 26.01 C 40.78 26.89 41.59 27.77 42.41 28.66 C 41.64 30.03 40.87 31.40 40.05 32.75 C 39.12 31.46 38.34 30.10 37.64 28.67 C 38.39 27.77 39.16 26.88 39.95 26.01 Z" fill="#000000" />
<path d="M 23.90 28.12 C 27.88 29.66 30.80 33.76 32.49 37.52 C 34.34 41.88 36.12 45.96 36.15 50.78 C 32.08 50.97 28.27 52.32 24.30 52.94 C 20.23 49.56 15.84 45.05 14.05 39.99 C 11.59 34.17 17.86 26.73 23.90 28.12 Z" fill="#000000" />
<path d="M 59.09 28.00 C 64.08 29.70 67.86 34.56 65.95 39.99 C 64.16 45.05 59.77 49.57 55.70 52.93 C 51.73 52.33 47.93 50.98 43.86 50.78 C 43.88 45.26 46.32 39.72 48.85 34.90 C 50.91 31.49 54.62 27.15 59.09 28.00 Z" fill="#000000" />
<path d="M 39.98 57.16 C 41.85 58.20 43.65 59.37 45.45 60.53 C 43.63 61.58 41.82 62.65 40.01 63.73 C 38.21 62.64 36.41 61.56 34.59 60.51 C 36.34 59.34 38.14 58.17 39.98 57.16 Z" fill="#ffffff" />
<path d="M 22.40 59.31 C 23.99 60.21 25.55 61.17 27.10 62.13 C 25.27 63.24 23.44 64.34 21.62 65.47 C 21.90 63.42 22.12 61.36 22.40 59.31 Z" fill="#ffffff" />
<path d="M 57.58 59.35 C 57.92 61.38 58.10 63.44 58.39 65.48 C 56.57 64.35 54.73 63.24 52.90 62.13 C 54.44 61.17 55.97 60.20 57.58 59.35 Z" fill="#ffffff" />
<path d="M 21.17 66.16 C 33.72 66.15 46.27 66.14 58.83 66.16 C 58.89 67.13 58.94 68.10 59.00 69.07 C 46.33 69.08 33.67 69.07 21.00 69.07 C 21.06 68.10 21.11 67.13 21.17 66.16 Z" fill="#ffffff" /></svg>