<svg viewBox="0 0 80 80" height="80.0pt" width="80.0pt" xmlns="http://www.w3.org/2000/svg" version="1.1">
<path d="M 44.92 7.08 C 46.75 10.31 47.46 15.40 51.17 16.83 C 54.55 18.70 57.67 20.86 60.33 23.70 C 66.84 29.84 68.32 40.49 68.03 49.00 C 68.16 53.21 66.62 57.06 67.03 61.24 C 67.47 64.95 68.44 68.57 69.89 72.02 C 53.61 71.85 37.32 72.03 21.04 71.96 C 21.17 64.20 22.75 57.05 29.00 51.91 C 31.36 50.53 33.63 49.33 35.51 47.29 C 40.92 47.14 45.97 45.88 49.29 41.28 C 51.67 38.08 50.93 34.69 50.95 30.93 C 49.24 34.42 48.03 39.33 44.98 41.88 C 42.08 43.93 38.31 45.59 34.72 44.54 C 31.95 43.83 29.15 44.15 26.71 45.67 C 25.05 47.03 24.10 49.32 22.97 51.12 C 20.23 49.51 17.45 47.96 14.63 46.49 C 16.12 45.43 17.61 44.40 19.13 43.40 C 18.47 42.67 17.82 41.95 17.16 41.23 C 15.48 42.40 13.81 43.60 12.13 44.78 C 12.03 40.88 12.02 36.98 11.96 33.08 C 17.76 28.79 24.60 25.52 29.49 20.31 C 34.33 16.39 39.83 14.90 43.26 9.37 C 43.81 8.61 44.36 7.84 44.92 7.08 Z" fill="#000000" />
<path d="M 49.46 18.68 C 54.47 21.10 59.54 24.06 61.51 29.60 C 64.93 38.50 62.77 49.74 62.19 59.04 C 62.01 62.93 63.64 65.93 65.22 69.34 C 62.61 66.75 60.19 64.32 59.34 60.60 C 57.74 52.03 61.06 44.44 59.61 36.10 C 59.09 33.07 58.92 30.30 57.40 27.57 C 55.43 23.90 52.48 21.44 49.46 18.68 Z" fill="#ffffff" />
<path d="M 37.26 22.00 C 39.42 22.06 40.43 25.09 41.41 26.67 C 38.32 26.73 35.23 26.70 32.14 26.70 C 33.82 25.12 35.43 23.41 37.26 22.00 Z" fill="#ffffff" />
<path d="M 17.50 34.30 C 19.10 33.41 19.82 34.40 21.26 35.02 C 20.67 35.73 20.08 36.44 19.50 37.15 C 18.48 36.99 17.46 36.83 16.45 36.67 C 16.78 35.87 17.13 35.08 17.50 34.30 Z" fill="#ffffff" /></svg>