<svg viewBox="0 0 80 80" height="80.0pt" width="80.0pt" xmlns="http://www.w3.org/2000/svg" version="1.1">
<path d="M 40.00 14.09 C 45.80 13.89 50.88 20.02 49.66 25.69 C 49.23 27.97 47.88 29.58 46.53 31.39 C 50.09 34.56 53.92 37.37 57.38 40.64 C 53.62 40.56 49.85 40.55 46.09 40.62 C 47.57 46.40 48.91 52.44 53.18 56.91 C 56.16 60.21 59.91 61.32 61.90 65.47 C 62.61 67.48 62.51 69.86 62.64 71.97 C 47.55 71.97 32.46 71.97 17.38 71.97 C 17.52 69.68 17.24 66.65 18.50 64.64 C 20.44 61.24 24.05 59.99 26.82 56.91 C 31.07 52.46 32.41 46.37 33.91 40.62 C 30.14 40.55 26.38 40.56 22.62 40.65 C 26.08 37.37 29.91 34.56 33.46 31.39 C 32.12 29.57 30.78 27.97 30.34 25.69 C 29.12 20.00 34.18 13.88 40.00 14.09 Z" fill="#000000" /></svg>