<svg viewBox="0 0 80 80" height="80.0pt" width="80.0pt" xmlns="http://www.w3.org/2000/svg" version="1.1">
<path d="M 29.91 11.06 C 32.00 11.89 34.19 13.55 34.00 16.06 C 34.16 17.87 33.25 19.01 32.36 20.44 C 34.91 25.75 37.51 31.04 40.00 36.37 C 42.53 31.01 45.10 25.66 47.72 20.34 C 47.15 19.60 46.58 18.87 46.01 18.13 C 45.95 15.23 45.94 13.32 48.69 11.75 C 52.02 9.26 56.48 13.33 56.10 16.90 C 55.94 18.82 54.53 19.75 53.36 21.11 C 54.62 27.39 55.93 33.66 57.23 39.93 C 59.67 38.03 62.18 36.25 64.74 34.53 C 63.62 31.49 63.91 28.18 67.22 26.87 C 70.85 25.52 74.71 28.26 74.13 32.22 C 73.92 35.44 71.13 36.53 68.33 36.82 C 64.72 42.24 61.93 48.16 60.34 54.49 C 59.28 60.61 59.89 66.40 62.66 71.99 C 47.56 71.96 32.45 71.96 17.34 71.99 C 18.66 68.67 20.09 65.69 20.06 62.04 C 20.89 53.29 16.30 44.02 11.67 36.84 C 8.44 36.51 5.69 35.09 5.82 31.41 C 5.79 27.06 11.12 25.05 14.26 27.74 C 16.34 29.73 16.08 31.94 15.24 34.50 C 17.80 36.24 20.32 38.03 22.77 39.93 C 24.07 33.66 25.37 27.39 26.65 21.12 C 25.78 20.12 24.43 19.06 24.06 17.75 C 23.00 14.39 26.48 10.39 29.91 11.06 Z" fill="#000000" />
<path d="M 43.04 51.03 C 48.01 51.63 52.64 52.96 57.36 54.55 C 57.20 55.74 57.04 56.93 56.87 58.13 C 51.54 56.12 45.73 54.43 40.00 54.32 C 34.18 54.44 28.52 56.09 23.11 58.13 C 22.95 56.94 22.79 55.75 22.62 54.56 C 29.17 52.37 36.08 50.35 43.04 51.03 Z" fill="#ffffff" />
<path d="M 40.00 57.92 C 41.86 59.00 43.64 60.20 45.37 61.48 C 43.55 62.46 41.77 63.48 40.00 64.54 C 38.22 63.44 36.45 62.36 34.66 61.29 C 36.40 60.10 38.16 58.95 40.00 57.92 Z" fill="#ffffff" />
<path d="M 23.25 59.41 C 24.72 60.32 26.16 61.26 27.57 62.26 C 25.86 63.34 24.17 64.44 22.50 65.60 C 22.80 63.54 23.04 61.48 23.25 59.41 Z" fill="#ffffff" />
<path d="M 56.73 59.40 C 56.95 61.47 57.19 63.54 57.49 65.60 C 55.83 64.44 54.14 63.34 52.43 62.26 C 53.84 61.27 55.28 60.32 56.73 59.40 Z" fill="#ffffff" />
<path d="M 22.45 66.22 C 34.15 66.02 45.93 66.24 57.64 66.12 C 57.96 67.11 58.29 68.10 58.62 69.08 C 46.17 69.07 33.72 69.08 21.27 69.08 C 21.64 68.11 22.03 67.16 22.45 66.22 Z" fill="#ffffff" /></svg>