<svg viewBox="0 0 80 80" height="80.0pt" width="80.0pt" xmlns="http://www.w3.org/2000/svg" version="1.1">
<path d="M 17.87 14.01 C 21.57 14.00 25.26 14.00 28.95 14.00 C 29.02 15.89 29.09 17.79 29.17 19.69 C 30.91 19.65 32.66 19.63 34.40 19.64 C 34.43 17.76 34.47 15.88 34.51 14.00 C 38.17 14.00 41.83 14.00 45.50 14.00 C 45.53 15.88 45.57 17.76 45.60 19.64 C 47.34 19.63 49.09 19.66 50.83 19.70 C 50.91 17.80 50.98 15.90 51.05 14.00 C 54.74 14.00 58.43 14.00 62.13 14.01 C 61.94 18.31 62.28 23.04 61.18 27.20 C 59.60 28.71 57.65 29.80 56.05 31.31 C 55.61 34.01 56.17 36.94 56.33 39.66 C 56.98 45.35 56.78 51.27 57.91 56.88 C 59.33 58.78 61.85 59.91 63.58 61.59 C 64.54 64.90 64.57 68.54 64.99 71.96 C 48.32 71.98 31.66 71.99 15.00 71.96 C 15.34 68.47 15.74 65.00 16.23 61.52 C 18.12 60.07 20.69 58.81 22.09 56.88 C 23.22 51.27 23.02 45.35 23.67 39.66 C 23.83 36.94 24.39 34.01 23.95 31.31 C 22.35 29.80 20.40 28.71 18.82 27.20 C 17.72 23.03 18.06 18.31 17.87 14.01 Z" fill="#000000" />
<path d="M 27.00 30.00 C 35.67 30.02 44.33 30.01 53.00 30.00 C 53.01 31.12 53.02 32.24 53.03 33.36 C 44.34 33.39 35.65 33.39 26.97 33.36 C 26.98 32.24 27.00 31.12 27.00 30.00 Z" fill="#ffffff" />
<path d="M 25.45 55.38 C 35.17 55.02 44.98 55.30 54.72 55.26 C 54.80 56.44 54.88 57.61 54.96 58.79 C 44.93 58.74 34.90 58.81 24.87 58.75 C 25.04 57.62 25.23 56.50 25.45 55.38 Z" fill="#ffffff" /></svg>