<svg viewBox="0 0 80 80" height="80.0pt" width="80.0pt" xmlns="http://www.w3.org/2000/svg" version="1.1">
<path d="M 44.93 9.08 C 45.29 10.53 45.22 12.10 45.29 13.60 C 44.40 14.37 43.50 15.13 42.60 15.90 C 49.55 20.93 57.90 26.00 59.95 34.99 C 61.09 41.43 56.56 45.93 52.80 50.46 C 53.06 53.53 54.03 56.32 55.20 59.14 C 52.59 59.12 49.97 59.12 47.36 59.11 C 48.04 60.10 48.72 61.10 49.40 62.09 C 54.91 63.15 60.47 62.24 65.97 62.96 C 70.43 64.25 71.41 67.86 72.29 71.93 C 65.52 71.95 58.73 72.11 51.96 71.92 C 46.36 71.67 41.13 67.60 39.99 62.03 C 38.85 67.58 33.63 71.67 28.04 71.92 C 21.27 72.11 14.48 71.95 7.71 71.93 C 8.59 67.87 9.56 64.22 14.03 62.95 C 19.52 62.24 25.05 63.16 30.55 62.09 C 31.25 61.10 31.95 60.10 32.65 59.11 C 30.03 59.12 27.41 59.12 24.79 59.14 C 25.95 56.33 26.92 53.52 27.20 50.47 C 23.45 45.94 18.90 41.42 20.05 34.99 C 22.11 25.94 30.37 20.96 37.38 15.92 C 36.49 15.15 35.60 14.37 34.71 13.59 C 34.92 11.31 34.30 8.99 36.39 7.42 C 39.09 5.15 43.31 5.96 44.93 9.08 Z" fill="#010101" />
<path d="M 38.47 9.48 C 40.32 8.56 41.70 9.25 42.73 10.93 C 42.47 12.38 41.80 14.23 40.00 14.03 C 37.72 14.20 36.29 10.82 38.47 9.48 Z" fill="#ffffff" />
<path d="M 40.00 17.39 C 44.32 20.12 48.53 23.24 52.06 26.95 C 54.50 29.71 57.20 33.10 57.02 37.00 C 56.94 41.50 54.09 44.40 51.36 47.60 C 43.81 45.49 36.19 45.49 28.64 47.60 C 24.92 43.48 21.56 39.43 23.55 33.50 C 26.45 26.61 33.90 21.33 40.00 17.39 Z" fill="#ffffff" />
<path d="M 38.15 27.96 C 39.38 27.96 40.62 27.96 41.85 27.96 C 41.86 29.31 41.86 30.65 41.87 32.00 C 43.09 31.99 44.31 31.99 45.52 31.99 C 45.51 33.13 45.50 34.26 45.48 35.40 C 44.28 35.39 43.07 35.39 41.87 35.38 C 41.87 37.55 41.86 39.73 41.86 41.90 C 40.62 41.90 39.38 41.89 38.14 41.89 C 38.14 39.72 38.14 37.55 38.13 35.38 C 36.93 35.39 35.72 35.40 34.51 35.40 C 34.50 34.27 34.49 33.13 34.48 31.99 C 35.70 31.99 36.91 32.00 38.13 32.00 C 38.14 30.65 38.14 29.31 38.15 27.96 Z" fill="#010101" />
<path d="M 49.63 50.17 C 50.02 52.30 50.48 54.40 51.00 56.50 C 43.66 56.50 36.32 56.51 28.98 56.50 C 29.50 54.39 29.97 52.29 30.38 50.17 C 37.36 48.54 42.65 48.55 49.63 50.17 Z" fill="#ffffff" />
<path d="M 37.95 58.78 C 37.57 64.40 33.61 68.40 28.08 69.03 C 22.37 69.17 16.65 69.04 10.93 69.04 C 12.07 67.84 13.20 65.76 15.00 65.71 C 20.24 65.11 26.47 66.30 31.53 64.53 C 34.49 63.08 34.36 59.44 37.95 58.78 Z" fill="#ffffff" />
<path d="M 42.17 59.78 C 42.80 59.45 43.44 59.13 44.08 58.81 C 45.19 60.71 46.29 63.64 48.47 64.53 C 53.53 66.30 59.76 65.11 65.00 65.71 C 66.75 65.77 67.96 67.87 69.07 69.04 C 63.06 69.00 57.02 69.26 51.02 68.96 C 46.47 67.92 42.60 64.66 42.17 59.78 Z" fill="#ffffff" /></svg>