<svg viewBox="0 0 80 80" height="80.0pt" width="80.0pt" xmlns="http://www.w3.org/2000/svg" version="1.1">
<path d="M 38.09 8.00 C 39.36 8.00 40.63 8.00 41.91 8.00 C 41.89 9.33 41.87 10.65 41.85 11.98 C 43.25 11.96 44.66 11.95 46.06 11.93 C 46.06 13.07 46.05 14.21 46.05 15.34 C 44.64 15.33 43.24 15.32 41.83 15.31 C 41.86 17.24 41.88 19.17 41.93 21.10 C 43.91 22.63 45.64 24.39 47.33 26.22 C 50.41 24.07 53.01 21.90 56.95 21.69 C 65.85 21.25 74.71 30.65 72.59 39.63 C 70.93 47.37 65.53 52.75 59.98 57.94 C 60.98 62.56 61.72 67.28 62.40 71.96 C 47.47 71.99 32.54 71.98 17.60 71.96 C 18.28 67.28 19.02 62.56 20.02 57.94 C 15.35 53.57 11.06 49.46 8.55 43.41 C 6.72 39.06 6.52 34.12 8.93 29.94 C 12.12 25.14 17.01 21.38 23.05 21.69 C 26.99 21.90 29.58 24.08 32.64 26.24 C 34.34 24.38 36.07 22.63 38.07 21.10 C 38.12 19.17 38.15 17.24 38.18 15.31 C 36.77 15.32 35.36 15.33 33.95 15.34 C 33.95 14.20 33.94 13.07 33.94 11.93 C 35.34 11.95 36.75 11.96 38.15 11.98 C 38.13 10.65 38.11 9.33 38.09 8.00 Z" fill="#010101" />
<path d="M 40.74 24.02 C 42.56 25.13 43.89 26.89 45.29 28.47 C 42.76 32.19 41.17 35.81 40.01 40.16 C 38.81 35.83 37.20 32.21 34.70 28.48 C 36.19 26.98 38.30 23.41 40.74 24.02 Z" fill="#ffffff" />
<path d="M 19.94 24.81 C 24.83 23.55 28.90 26.56 31.98 30.00 C 36.83 36.16 38.23 43.40 38.57 51.07 C 32.59 51.77 26.83 52.63 21.24 55.00 C 16.44 50.39 11.60 45.64 10.13 38.87 C 8.88 32.55 14.12 26.47 19.94 24.81 Z" fill="#ffffff" />
<path d="M 60.04 24.81 C 65.85 26.47 71.12 32.55 69.87 38.87 C 68.40 45.60 63.51 50.40 58.76 55.00 C 53.17 52.63 47.40 51.77 41.43 51.07 C 41.69 43.15 43.27 35.67 48.46 29.45 C 51.55 26.24 55.35 23.63 60.04 24.81 Z" fill="#ffffff" />
<path d="M 49.01 55.07 C 52.32 55.86 55.68 56.20 58.06 58.88 C 56.35 59.98 54.63 61.06 52.90 62.13 C 54.74 63.26 56.78 64.26 58.41 65.69 C 58.76 66.79 59.07 67.91 59.32 69.05 C 46.44 69.08 33.56 69.08 20.68 69.05 C 20.93 67.92 21.23 66.80 21.59 65.69 C 23.21 64.26 25.27 63.26 27.10 62.13 C 25.38 61.06 23.66 59.98 21.95 58.90 C 23.09 57.86 24.00 56.87 25.55 56.48 C 33.12 54.03 41.21 53.38 49.01 55.07 Z" fill="#ffffff" />
<path d="M 40.10 57.18 C 41.93 58.21 43.70 59.36 45.47 60.49 C 43.61 61.57 41.76 62.66 39.91 63.76 C 38.13 62.63 36.34 61.51 34.54 60.42 C 36.37 59.31 38.21 58.18 40.10 57.18 Z" fill="#010101" /></svg>