<svg viewBox="0 0 80 80" height="80.0pt" width="80.0pt" xmlns="http://www.w3.org/2000/svg" version="1.1">
<path d="M 44.96 7.07 C 46.18 9.74 47.14 12.76 48.87 15.15 C 51.01 17.02 53.76 18.19 56.04 19.92 C 59.96 22.85 63.74 26.81 65.46 31.48 C 68.33 39.37 68.73 47.80 67.28 56.03 C 66.25 61.76 68.07 66.63 69.69 71.99 C 53.45 71.91 37.21 72.06 20.97 71.91 C 21.34 64.41 22.48 57.58 28.45 52.42 C 31.38 50.14 35.76 49.10 36.18 44.73 C 32.81 43.94 29.72 43.77 26.69 45.68 C 25.11 47.12 24.09 49.27 22.97 51.07 C 20.18 49.55 17.42 47.96 14.65 46.41 C 16.12 45.36 17.62 44.34 19.15 43.36 C 18.48 42.65 17.81 41.94 17.14 41.23 C 15.46 42.41 13.80 43.62 12.12 44.81 C 12.04 40.89 12.00 36.97 11.97 33.05 C 17.39 29.16 23.57 25.97 28.36 21.37 C 33.41 16.62 39.41 15.37 43.28 9.36 C 43.84 8.60 44.40 7.83 44.96 7.07 Z" fill="#000000" />
<path d="M 44.63 12.94 C 45.19 14.48 45.76 16.01 46.34 17.53 C 49.41 19.22 52.37 20.66 54.93 23.12 C 60.44 28.60 63.57 36.17 63.61 43.96 C 63.69 52.55 61.84 60.49 63.91 69.08 C 50.60 69.06 37.28 69.09 23.97 69.06 C 24.39 62.31 27.35 55.84 33.67 52.79 C 37.59 51.00 38.75 47.64 41.12 44.35 C 44.11 43.64 46.83 43.55 48.78 40.83 C 51.26 37.80 50.99 34.58 51.09 30.88 C 49.76 33.72 48.65 37.20 46.59 39.59 C 44.86 41.26 41.79 41.52 39.55 42.30 C 35.35 41.21 30.01 41.05 26.08 43.12 C 23.60 44.27 22.43 47.67 19.38 46.38 C 20.59 45.42 21.79 44.46 22.99 43.50 C 21.17 41.60 19.32 39.73 17.49 37.84 C 16.66 38.34 15.83 38.83 15.00 39.32 C 15.00 37.69 15.00 36.05 15.00 34.41 C 20.12 30.83 26.07 27.83 30.48 23.45 C 34.82 19.33 40.48 17.36 44.63 12.94 Z" fill="#ffffff" />
<path d="M 37.96 21.83 C 39.31 23.18 40.55 24.60 41.72 26.11 C 38.59 26.19 35.46 26.14 32.32 26.08 C 34.16 24.51 35.75 22.90 37.96 21.83 Z" fill="#000000" />
<path d="M 18.89 34.02 C 19.67 34.14 20.38 34.51 21.04 35.12 C 20.33 36.37 19.20 37.30 17.70 36.79 C 17.42 35.27 17.82 34.34 18.89 34.02 Z" fill="#000000" /></svg>