<svg viewBox="0 0 80 80" height="80.0pt" width="80.0pt" xmlns="http://www.w3.org/2000/svg" version="1.1">
<path d="M 40.00 14.09 C 44.85 13.87 49.32 18.32 49.81 23.03 C 50.14 26.34 48.60 28.94 46.52 31.36 C 50.05 34.58 53.95 37.32 57.37 40.66 C 53.61 40.54 49.85 40.55 46.09 40.63 C 47.64 46.65 49.00 52.85 53.64 57.37 C 56.08 60.00 59.03 61.04 61.01 63.95 C 62.78 66.14 62.49 69.31 62.61 71.97 C 47.54 71.98 32.47 71.98 17.40 71.97 C 17.51 69.30 17.17 66.15 18.96 63.93 C 20.94 61.03 23.92 60.00 26.36 57.38 C 31.01 52.84 32.32 46.65 33.91 40.63 C 30.14 40.55 26.39 40.54 22.63 40.66 C 26.05 37.32 29.95 34.58 33.49 31.36 C 32.28 29.81 31.06 28.40 30.53 26.45 C 28.66 20.59 33.90 13.86 40.00 14.09 Z" fill="#010101" />
<path d="M 46.21 20.86 C 48.30 24.72 46.11 29.83 41.64 30.49 C 44.50 33.07 47.50 35.46 50.37 38.01 C 43.47 38.10 36.54 38.09 29.63 38.01 C 32.50 35.46 35.51 33.06 38.37 30.49 C 32.92 29.64 31.24 22.76 35.10 19.09 C 38.52 15.48 43.95 16.66 46.21 20.86 Z" fill="#ffffff" />
<path d="M 36.11 40.64 C 38.70 40.63 41.30 40.63 43.89 40.64 C 44.16 49.29 48.20 57.66 55.44 62.59 C 58.25 64.44 59.13 65.85 60.08 69.05 C 46.70 69.09 33.31 69.08 19.93 69.05 C 20.83 65.77 21.74 64.48 24.55 62.59 C 31.81 57.67 35.83 49.29 36.11 40.64 Z" fill="#ffffff" /></svg>