<svg viewBox="0 0 80 80" height="80.0pt" width="80.0pt" xmlns="http://www.w3.org/2000/svg" version="1.1">
<path d="M 31.91 12.14 C 35.15 14.51 34.12 17.63 32.45 20.60 C 34.96 25.86 37.53 31.10 40.00 36.39 C 42.47 31.10 45.04 25.86 47.56 20.60 C 46.49 18.53 45.47 16.78 46.21 14.36 C 47.22 12.40 49.70 10.53 51.99 11.05 C 54.42 12.08 56.30 14.19 56.06 16.97 C 56.00 18.58 54.24 20.03 53.38 21.29 C 54.64 27.51 55.96 33.72 57.22 39.95 C 59.64 38.08 62.12 36.30 64.65 34.58 C 64.40 32.94 63.79 31.05 64.52 29.49 C 65.20 27.51 67.15 27.12 68.83 26.25 C 69.89 26.53 70.95 26.81 72.01 27.07 C 73.41 28.95 74.68 30.43 74.01 32.96 C 73.49 35.91 70.63 36.27 68.23 36.95 C 65.35 41.44 62.87 46.16 61.26 51.27 C 58.96 58.10 59.49 65.53 62.64 72.00 C 47.55 71.96 32.46 71.97 17.37 72.00 C 18.68 68.67 20.06 65.67 20.06 62.01 C 20.87 53.22 16.33 44.20 11.77 36.95 C 9.37 36.27 6.51 35.91 5.99 32.96 C 5.32 30.43 6.59 28.95 7.99 27.07 C 9.05 26.81 10.11 26.53 11.17 26.26 C 12.86 27.13 14.79 27.49 15.47 29.49 C 16.21 31.07 15.60 32.92 15.35 34.57 C 17.88 36.30 20.35 38.08 22.78 39.94 C 24.04 33.72 25.35 27.51 26.62 21.29 C 25.35 19.52 23.63 18.43 23.93 16.02 C 24.29 12.34 28.68 9.26 31.91 12.14 Z" fill="#010101" />
<path d="M 27.03 14.17 C 28.34 14.00 29.65 13.91 30.97 13.89 C 31.13 15.15 31.26 16.41 31.37 17.67 C 30.54 18.12 29.70 18.56 28.87 19.01 C 28.18 18.54 27.49 18.07 26.80 17.59 C 26.76 16.42 26.83 15.28 27.03 14.17 Z" fill="#ffffff" />
<path d="M 49.18 14.11 C 50.45 13.97 51.73 13.90 53.01 13.91 C 53.12 15.19 53.21 16.47 53.27 17.75 C 52.52 18.13 51.76 18.52 51.01 18.90 C 50.19 18.49 49.38 18.07 48.56 17.66 C 48.65 16.45 48.86 15.27 49.18 14.11 Z" fill="#ffffff" />
<path d="M 29.43 20.85 C 29.82 21.70 30.22 22.54 30.61 23.38 C 33.78 29.88 36.88 36.40 40.00 42.91 C 43.49 35.54 47.07 28.21 50.58 20.85 C 51.83 28.82 53.56 36.75 55.33 44.62 C 58.14 42.64 60.93 40.64 63.72 38.64 C 60.82 43.87 58.38 49.22 57.31 55.16 C 52.60 53.52 48.05 51.96 43.01 51.75 C 35.94 51.11 29.25 52.69 22.68 55.16 C 21.58 49.24 19.14 43.89 16.28 38.64 C 19.07 40.64 21.86 42.64 24.66 44.62 C 26.45 36.76 28.17 28.82 29.43 20.85 Z" fill="#ffffff" />
<path d="M 9.32 29.19 C 10.93 29.00 11.86 28.87 13.06 30.14 C 13.28 31.45 13.14 32.57 12.63 33.50 C 11.41 33.82 10.18 34.08 8.93 34.29 C 8.69 32.37 7.89 30.85 9.32 29.19 Z" fill="#ffffff" />
<path d="M 70.89 28.96 C 71.65 30.84 71.47 32.36 71.09 34.30 C 70.11 34.12 69.14 33.92 68.17 33.71 C 66.45 33.69 66.95 31.22 66.91 30.10 C 68.10 29.06 69.41 29.13 70.89 28.96 Z" fill="#ffffff" />
<path d="M 57.23 58.36 C 56.50 60.16 53.86 61.04 52.38 62.20 C 54.10 63.31 55.82 64.41 57.53 65.53 C 57.88 66.71 58.23 67.90 58.59 69.08 C 46.19 69.06 33.80 69.06 21.40 69.08 C 21.76 67.90 22.12 66.71 22.47 65.53 C 24.18 64.41 25.90 63.31 27.62 62.20 C 26.17 61.05 23.45 60.16 22.79 58.35 C 26.35 56.76 30.17 55.68 34.00 54.97 C 41.61 53.27 50.17 55.40 57.23 58.36 Z" fill="#ffffff" />
<path d="M 40.01 57.93 C 41.85 59.02 43.62 60.20 45.40 61.39 C 43.58 62.43 41.78 63.49 39.98 64.56 C 38.20 63.44 36.41 62.33 34.61 61.23 C 36.39 60.10 38.16 58.97 40.01 57.93 Z" fill="#010101" /></svg>