<svg viewBox="0 0 80 80" height="80.0pt" width="80.0pt" xmlns="http://www.w3.org/2000/svg" version="1.1">
<path d="M 17.86 14.00 C 21.59 14.00 25.32 14.00 29.05 14.00 C 29.05 15.88 29.06 17.76 29.06 19.63 C 30.86 19.63 32.65 19.63 34.44 19.63 C 34.44 17.75 34.44 15.88 34.44 14.00 C 38.15 14.00 41.86 14.00 45.56 14.00 C 45.56 15.88 45.56 17.75 45.56 19.63 C 47.35 19.63 49.15 19.64 50.94 19.64 C 50.94 17.76 50.95 15.88 50.95 14.00 C 54.68 14.00 58.41 14.00 62.14 14.00 C 61.95 18.33 62.22 22.97 61.26 27.20 C 59.76 28.81 56.90 29.93 55.81 31.76 C 55.85 35.84 56.47 39.93 56.69 44.01 C 57.03 48.34 57.04 52.86 57.94 57.12 C 59.66 58.83 61.85 60.16 63.83 61.58 C 64.26 65.04 64.67 68.51 64.98 71.99 C 48.33 71.97 31.67 71.97 15.02 71.99 C 15.33 68.51 15.74 65.04 16.17 61.58 C 18.15 60.16 20.33 58.83 22.06 57.12 C 22.97 52.86 22.97 48.34 23.30 44.01 C 23.54 39.93 24.14 35.84 24.20 31.75 C 23.04 29.91 20.27 28.82 18.74 27.20 C 17.78 22.97 18.05 18.33 17.86 14.00 Z" fill="#010101" />
<path d="M 37.21 16.78 C 39.09 16.65 40.98 16.69 42.86 16.69 C 42.86 18.59 42.86 20.48 42.85 22.38 C 46.56 22.38 50.27 22.38 53.98 22.38 C 53.98 20.49 53.98 18.60 53.99 16.71 C 55.66 16.71 57.34 16.71 59.01 16.71 C 58.97 19.69 58.92 22.66 58.85 25.64 C 56.75 27.07 54.67 28.54 52.59 30.00 C 44.20 30.00 35.81 30.01 27.41 30.00 C 25.33 28.54 23.25 27.07 21.15 25.64 C 21.08 22.66 21.03 19.69 20.99 16.71 C 22.66 16.71 24.34 16.71 26.02 16.71 C 26.02 18.60 26.02 20.49 26.02 22.38 C 29.72 22.38 33.42 22.38 37.12 22.37 C 37.13 20.51 37.07 18.64 37.21 16.78 Z" fill="#ffffff" />
<path d="M 27.01 32.83 C 35.67 32.84 44.33 32.84 52.99 32.83 C 53.44 40.49 54.22 48.11 54.61 55.77 C 44.87 55.74 35.13 55.74 25.39 55.77 C 25.78 48.11 26.56 40.49 27.01 32.83 Z" fill="#ffffff" />
<path d="M 25.06 58.90 C 34.36 58.62 43.72 58.88 53.03 58.78 C 55.97 58.42 58.72 61.69 61.00 63.25 C 61.24 65.20 61.53 67.13 61.82 69.07 C 47.27 69.07 32.73 69.07 18.18 69.07 C 18.47 67.13 18.76 65.20 19.00 63.25 C 20.93 61.73 22.87 60.02 25.06 58.90 Z" fill="#ffffff" /></svg>